<?xml version="1.0" encoding="utf-8"?>
<!-- Generator: Adobe Illustrator 17.0.0, SVG Export Plug-In . SVG Version: 6.00 Build 0)  -->
<!DOCTYPE svg PUBLIC "-//W3C//DTD SVG 1.1//EN" "http://www.w3.org/Graphics/SVG/1.1/DTD/svg11.dtd">
<svg version="1.1" id="Layer_1" xmlns="http://www.w3.org/2000/svg" xmlns:xlink="http://www.w3.org/1999/xlink" x="0px" y="0px"
	 width="750.464px" height="357.741px" viewBox="0 0 750.464 357.741" enable-background="new 0 0 750.464 357.741"
	 xml:space="preserve">
<path fill="#4D4D4D" d="M442.551,296.249c-3.365-12.983-14.934-22.05-28.134-22.05c-5.448,0-10.792,1.476-15.928,4.412l-0.204,0.121
	c-1.11,0.581-6.341,2.016-10.091,2.016c-6.81,0-13.852,0-13.852-29.611v-89.875h26.453c8.603,0,16.384-3.194,21.91-8.996
	c5.07-5.329,7.862-12.393,7.862-19.891c0-14.002-10.434-28.884-29.773-28.884h-26.453V74.274c0-17.394-13.23-30.51-30.772-30.51
	c-17.413,0-30.544,13.116-30.544,30.51v29.216h-9.522c-19.433,0-29.919,15.039-29.919,29.19c0,7.558,2.853,14.621,8.029,19.882
	c3.897,3.968,10.858,8.698,21.89,8.698h9.522v89.875c0,32.455,8.318,56.454,24.723,71.331
	c12.609,11.432,29.581,17.231,50.445,17.231c11.209,0,24.533-1.044,38.332-8.772C439.809,323.551,446.099,309.939,442.551,296.249z"
	/>
<g>
	<path fill="#00549F" d="M124.78,146.875l-3.424,2.025c-3.493,2.358-6.947,5.219-10.143,8.417
		c-4.599,4.597-8.492,9.71-11.264,14.787l-0.148,0.27c-11.203,19.18-10.35,41.162,1.89,60.539l84.857-84.853
		C166.82,135.87,144.387,135.27,124.78,146.875z"/>
	<path fill="#00549F" d="M270.236,163.707c-8.113-8.248-12.566-19.27-12.566-31.026c0-11.232,4.301-22.396,11.821-30.628
		c0.59-0.646,1.201-1.264,1.822-1.869c-28.407-32.195-69.968-52.509-116.282-52.509C69.41,47.675,0,117.085,0,202.708
		c0,85.623,69.41,155.032,155.031,155.032c63.513,0,118.081-38.2,142.041-92.87v-88.104
		C287.072,175.455,277.332,170.932,270.236,163.707z M269.165,208.844c-0.82,24.324-12.743,49.189-33.57,70.016
		c-0.494,0.498-0.997,0.988-1.501,1.475c-24.481,24.486-57.193,37.125-87.395,33.707l-0.232-0.029
		c-38.441-5.229-73.178-30.302-90.649-65.435c-15.893-31.969-15.122-67.857,2.115-98.472c4.677-8.65,10.986-17.01,18.668-24.69
		c7.312-7.308,15.565-13.722,24.548-19.071l0.326-0.322l1.216-0.694c23.94-13.632,49.46-17.562,73.926-12.186l1.917,0.441
		c19.056,4.58,37.429,14.833,53.85,30.565c5.964,5.059,9.417,11.642,9.729,18.559c0.353,7.768-3.038,15.275-10.07,22.309
		l-97.24,97.241c21.673,9.46,47.282,4.39,65.741-14.07c8.473-8.475,19.068-22.435,21.598-40.937
		c0.411-6.596,3.045-12.627,7.45-17.033c6.804-6.803,16.714-8.955,25.248-5.484c8.833,3.593,14.188,12.428,14.329,23.629
		L269.165,208.844z"/>
</g>
<path fill="#4D4D4D" d="M742.484,289.805l-64.39-70.858l63.66-70.807l0.978-1.196c6.609-8.895,7.659-19.969,2.807-29.624
	c-5.303-10.538-16.898-17.619-28.853-17.619c-9.285,0-17.57,4.071-23.349,11.47l-56.419,64.388l-52.259-64.373l-0.165-0.198
	c-5.955-7.053-14.359-10.936-23.658-10.936c-12.112,0-23.24,6.665-28.35,16.981c-5.017,10.129-3.531,21.664,4.075,31.646
	l58.852,70.231l-59.281,69.5c-8.778,9.712-11.078,22.209-6.151,33.445c4.88,11.136,15.832,18.331,27.903,18.331
	c8.932,0,17.425-3.98,23.915-11.211l55.396-67.357l58.948,67.692c6.185,6.954,14.441,10.785,23.259,10.785
	c12.074,0,23.518-7.403,28.481-18.423C752.702,310.973,750.702,299.081,742.484,289.805z"/>
<circle fill="#00549F" cx="484.223" cy="45.526" r="45.525"/>
<path fill="#4D4D4D" d="M484.473,103.23c-17.794,0-31.215,12.677-31.215,29.488v177.301c0,16.781,13.365,29.436,31.089,29.436
	c17.582,0,30.84-12.655,30.84-29.436V132.325C515.187,115.738,501.983,103.23,484.473,103.23z"/>
</svg>
