<?xml version="1.0" encoding="UTF-8" standalone="no"?>
<!-- Generator: Adobe Illustrator 16.0.0, SVG Export Plug-In . SVG Version: 6.00 Build 0)  -->

<svg
   version="1.1"
   id="Layer_1"
   x="0px"
   y="0px"
   width="250.55998"
   height="32"
   viewBox="0 0 250.55997 32"
   enable-background="new 0 0 224.014 32"
   xml:space="preserve"
   sodipodi:docname="top_logo.svg"
   inkscape:version="1.4.2 (ebf0e940, 2025-05-08)"
   xmlns:inkscape="http://www.inkscape.org/namespaces/inkscape"
   xmlns:sodipodi="http://sodipodi.sourceforge.net/DTD/sodipodi-0.dtd"
   xmlns="http://www.w3.org/2000/svg"
   xmlns:svg="http://www.w3.org/2000/svg"><defs
   id="defs38" /><sodipodi:namedview
   id="namedview38"
   pagecolor="#ffffff"
   bordercolor="#000000"
   borderopacity="0.25"
   inkscape:showpageshadow="2"
   inkscape:pageopacity="0.0"
   inkscape:pagecheckerboard="0"
   inkscape:deskcolor="#d1d1d1"
   inkscape:zoom="3.7140535"
   inkscape:cx="111.87238"
   inkscape:cy="15.885609"
   inkscape:window-width="1920"
   inkscape:window-height="931"
   inkscape:window-x="1920"
   inkscape:window-y="31"
   inkscape:window-maximized="1"
   inkscape:current-layer="Layer_1" />
<path
   d="m 45.112942,26.335 h 1.045 q -0.088,-0.627 -0.374,-1.1 -0.286,-0.484 -0.715,-0.803 -0.429,-0.319 -0.979,-0.484 -0.55,-0.165 -1.166,-0.165 -0.902,0 -1.606,0.33 -0.693,0.319 -1.166,0.88 -0.462,0.561 -0.704,1.32 -0.242,0.748 -0.242,1.606 0,0.858 0.22,1.606 0.231,0.748 0.682,1.298 0.451,0.55 1.133,0.869 0.682,0.308 1.595,0.308 1.507,0 2.376,-0.825 0.869,-0.825 1.023,-2.31 h -1.045 q -0.033,0.484 -0.198,0.902 -0.165,0.418 -0.462,0.726 -0.286,0.297 -0.693,0.473 -0.396,0.165 -0.913,0.165 -0.704,0 -1.21,-0.264 -0.506,-0.264 -0.836,-0.704 -0.319,-0.451 -0.473,-1.045 -0.154,-0.605 -0.154,-1.276 0,-0.616 0.154,-1.188 0.154,-0.572 0.473,-1.012 0.33,-0.451 0.825,-0.715 0.506,-0.264 1.21,-0.264 0.825,0 1.419,0.418 0.605,0.418 0.781,1.254 z m 2.420001,-2.365 v 7.854 h 5.456 v -0.88 h -4.411 v -2.717 h 4.081 v -0.88 h -4.081 V 24.85 h 4.378 v -0.88 z m 6.710001,0 v 7.854 h 0.99 v -6.303 h 0.022 l 4.103,6.303 h 1.144 V 23.97 h -0.99 v 6.369 h -0.022 l -4.136,-6.369 z m 9.735001,0.88 v 6.974 h 1.045 V 24.85 h 2.618 v -0.88 h -6.281 v 0.88 z m 4.531993,-0.88 v 7.854 h 1.045 v -3.355 h 2.552 q 0.385,0 0.616,0.121 0.231,0.11 0.374,0.308 0.143,0.187 0.209,0.451 0.066,0.253 0.11,0.539 0.055,0.286 0.066,0.583 0.011,0.297 0.022,0.561 0.011,0.253 0.044,0.462 0.044,0.209 0.154,0.33 h 1.166 q -0.165,-0.198 -0.253,-0.451 -0.077,-0.264 -0.121,-0.55 -0.044,-0.286 -0.055,-0.583 -0.011,-0.297 -0.033,-0.583 -0.033,-0.286 -0.099,-0.55 -0.055,-0.264 -0.187,-0.473 -0.121,-0.22 -0.341,-0.374 -0.209,-0.154 -0.55,-0.22 v -0.022 q 0.715,-0.198 1.034,-0.737 0.33,-0.539 0.33,-1.254 0,-0.957 -0.638,-1.507 -0.627,-0.55 -1.749,-0.55 z m 3.223,3.619 h -2.178 V 24.85 h 2.596 q 0.737,0 1.067,0.374 0.33,0.374 0.33,0.968 0,0.429 -0.154,0.704 -0.143,0.264 -0.396,0.429 -0.242,0.154 -0.572,0.209 -0.33,0.055 -0.693,0.055 z m 5.664994,0.99 1.331001,-3.663 h 0.022 l 1.309001,3.663 z m 0.781001,-4.609 -3.058001,7.854 h 1.067001 l 0.879999,-2.365 h 3.322001 l 0.858,2.365 h 1.154999 L 79.333933,23.97 Z m 4.994009,0 v 7.854 h 5.203 v -0.88 h -4.158 V 23.97 Z m 6.159998,0 v 7.854 h 1.045 V 23.97 Z m 2.189006,6.974 v 0.88 h 6.248 v -0.88 h -5.005 l 4.873,-6.094 v -0.88 h -5.742 v 0.88 h 4.51 z m 7.337001,-6.974 v 7.854 h 5.456003 v -0.88 h -4.411003 v -2.717 h 4.081003 v -0.88 H 99.903947 V 24.85 h 4.378003 v -0.88 z m 7.766003,6.974 V 24.85 h 1.76 q 0.726,0 1.221,0.209 0.495,0.198 0.803,0.594 0.319,0.385 0.451,0.946 0.143,0.55 0.143,1.254 0,0.726 -0.154,1.243 -0.143,0.506 -0.374,0.847 -0.231,0.341 -0.528,0.539 -0.286,0.198 -0.583,0.308 -0.297,0.099 -0.561,0.132 -0.264,0.022 -0.44,0.022 z m -1.045,-6.974 v 7.854 h 2.695 q 0.979,0 1.694,-0.275 0.715,-0.275 1.177,-0.792 0.462,-0.528 0.682,-1.287 0.22,-0.77 0.22,-1.76 0,-1.892 -0.979,-2.816 -0.979,-0.924 -2.794,-0.924 z m 11.407,3.927 q 0,-0.594 0.154,-1.166 0.154,-0.583 0.484,-1.045 0.33,-0.462 0.847,-0.737 0.517,-0.286 1.232,-0.286 0.715,0 1.232,0.286 0.517,0.275 0.847,0.737 0.33,0.462 0.484,1.045 0.154,0.572 0.154,1.166 0,0.594 -0.154,1.177 -0.154,0.572 -0.484,1.034 -0.33,0.462 -0.847,0.748 -0.517,0.275 -1.232,0.275 -0.715,0 -1.232,-0.275 -0.517,-0.286 -0.847,-0.748 -0.33,-0.462 -0.484,-1.034 -0.154,-0.583 -0.154,-1.177 z m -1.045,0 q 0,0.803 0.231,1.551 0.242,0.737 0.715,1.309 0.473,0.572 1.177,0.913 0.704,0.33 1.639,0.33 0.935,0 1.639,-0.33 0.704,-0.341 1.177,-0.913 0.473,-0.572 0.704,-1.309 0.242,-0.748 0.242,-1.551 0,-0.803 -0.242,-1.54 -0.231,-0.748 -0.704,-1.32 -0.473,-0.572 -1.177,-0.913 -0.704,-0.341 -1.639,-0.341 -0.935,0 -1.639,0.341 -0.704,0.341 -1.177,0.913 -0.473,0.572 -0.715,1.32 -0.231,0.737 -0.231,1.54 z m 8.80001,-3.927 v 7.854 h 1.045 v -3.597 h 3.608 v -0.88 h -3.608 V 24.85 h 4.114 v -0.88 z m 6.31399,0 v 7.854 h 1.045 v -3.597 h 3.608 v -0.88 h -3.608 V 24.85 h 4.114 v -0.88 z m 6.358,0 v 7.854 h 1.045 V 23.97 Z m 8.327,2.365 h 1.045 q -0.088,-0.627 -0.374,-1.1 -0.286,-0.484 -0.715,-0.803 -0.429,-0.319 -0.979,-0.484 -0.55,-0.165 -1.166,-0.165 -0.902,0 -1.606,0.33 -0.693,0.319 -1.166,0.88 -0.462,0.561 -0.704,1.32 -0.242,0.748 -0.242,1.606 0,0.858 0.22,1.606 0.231,0.748 0.682,1.298 0.451,0.55 1.133,0.869 0.682,0.308 1.595,0.308 1.507,0 2.376,-0.825 0.869,-0.825 1.023,-2.31 h -1.045 q -0.033,0.484 -0.198,0.902 -0.165,0.418 -0.462,0.726 -0.286,0.297 -0.693,0.473 -0.396,0.165 -0.913,0.165 -0.704,0 -1.21,-0.264 -0.506,-0.264 -0.836,-0.704 -0.319,-0.451 -0.473,-1.045 -0.154,-0.605 -0.154,-1.276 0,-0.616 0.154,-1.188 0.154,-0.572 0.473,-1.012 0.33,-0.451 0.825,-0.715 0.506,-0.264 1.21,-0.264 0.825,0 1.419,0.418 0.605,0.418 0.781,1.254 z m 2.42,-2.365 v 7.854 h 5.456 v -0.88 h -4.411 v -2.717 h 4.081 v -0.88 h -4.081 V 24.85 h 4.378 v -0.88 z m 9.779,0 v 7.854 h 1.045 v -3.355 h 2.552 q 0.385,0 0.616,0.121 0.231,0.11 0.374,0.308 0.143,0.187 0.209,0.451 0.066,0.253 0.11,0.539 0.055,0.286 0.066,0.583 0.011,0.297 0.022,0.561 0.011,0.253 0.044,0.462 0.044,0.209 0.154,0.33 h 1.166 q -0.165,-0.198 -0.253,-0.451 -0.077,-0.264 -0.121,-0.55 -0.044,-0.286 -0.055,-0.583 -0.011,-0.297 -0.033,-0.583 -0.033,-0.286 -0.099,-0.55 -0.055,-0.264 -0.187,-0.473 -0.121,-0.22 -0.341,-0.374 -0.209,-0.154 -0.55,-0.22 v -0.022 q 0.715,-0.198 1.034,-0.737 0.33,-0.539 0.33,-1.254 0,-0.957 -0.638,-1.507 -0.627,-0.55 -1.749,-0.55 z m 3.223,3.619 h -2.178 V 24.85 h 2.596 q 0.737,0 1.067,0.374 0.33,0.374 0.33,0.968 0,0.429 -0.154,0.704 -0.143,0.264 -0.396,0.429 -0.242,0.154 -0.572,0.209 -0.33,0.055 -0.693,0.055 z m 4.312,-3.619 v 7.854 h 5.456 v -0.88 h -4.411 v -2.717 h 4.081 v -0.88 h -4.081 V 24.85 h 4.378 v -0.88 z m 9.81201,7.854 2.794,-7.854 h -1.089 l -2.266,6.809 h -0.022 l -2.244,-6.809 h -1.122 l 2.761,7.854 z m 3.62999,-7.854 v 7.854 h 5.456 v -0.88 h -4.411 v -2.717 h 4.081 v -0.88 h -4.081 V 24.85 h 4.378 v -0.88 z m 6.70999,0 v 7.854 h 0.99 v -6.303 h 0.022 l 4.103,6.303 h 1.144 V 23.97 h -0.99 v 6.369 h -0.022 l -4.136,-6.369 z m 14.22302,5.016 V 23.97 h -1.045 v 5.016 q 0,1.056 -0.528,1.606 -0.517,0.539 -1.518,0.539 -1.056,0 -1.617,-0.539 -0.561,-0.55 -0.561,-1.606 V 23.97 h -1.045 v 5.016 q 0,1.573 0.847,2.299 0.858,0.715 2.376,0.715 1.485,0 2.288,-0.748 0.803,-0.759 0.803,-2.266 z m 1.67199,-5.016 v 7.854 h 5.456 v -0.88 h -4.411 v -2.717 h 4.081 v -0.88 h -4.081 V 24.85 h 4.378 v -0.88 z m 9.779,0 v 7.854 h 5.456 v -0.88 h -4.411 v -2.717 h 4.081 v -0.88 h -4.081 V 24.85 h 4.378 v -0.88 z m 6.71,0 v 7.854 h 0.99 v -6.303 h 0.022 l 4.103,6.303 h 1.144 V 23.97 h -0.99 v 6.369 h -0.022 l -4.136,-6.369 z m 13.82701,6.875 0.275,0.979 h 0.66 v -4.136 h -3.443 v 0.88 h 2.508 q 0.022,0.539 -0.143,1.012 -0.165,0.462 -0.495,0.814 -0.319,0.341 -0.792,0.539 -0.473,0.198 -1.089,0.198 -0.66,0 -1.166,-0.253 -0.495,-0.264 -0.836,-0.693 -0.341,-0.44 -0.517,-1.001 -0.176,-0.572 -0.176,-1.188 0,-0.627 0.154,-1.221 0.154,-0.605 0.473,-1.067 0.33,-0.473 0.836,-0.759 0.517,-0.286 1.232,-0.286 0.44,0 0.825,0.11 0.396,0.099 0.704,0.308 0.308,0.209 0.517,0.539 0.209,0.319 0.286,0.77 h 1.045 q -0.11,-0.693 -0.418,-1.177 -0.297,-0.495 -0.748,-0.814 -0.44,-0.319 -1.012,-0.462 -0.561,-0.154 -1.199,-0.154 -0.935,0 -1.639,0.352 -0.693,0.341 -1.166,0.924 -0.462,0.583 -0.704,1.364 -0.231,0.77 -0.231,1.628 0,0.77 0.253,1.485 0.253,0.715 0.737,1.265 0.484,0.55 1.177,0.88 0.693,0.319 1.573,0.319 0.693,0 1.375,-0.264 0.682,-0.275 1.144,-0.891 z m 2.519,-6.875 v 7.854 h 1.045 V 23.97 Z m 2.79402,0 v 7.854 h 0.99 v -6.303 h 0.022 l 4.103,6.303 h 1.144 V 23.97 h -0.99 v 6.369 h -0.022 l -4.136,-6.369 z m 7.953,0 v 7.854 h 5.456 v -0.88 h -4.411 v -2.717 h 4.081 v -0.88 h -4.081 V 24.85 h 4.378 v -0.88 z"
   id="text38"
   style="font-size:11px;font-family:'Helvetica Neue';-inkscape-font-specification:'Helvetica Neue';fill:#ffffff"
   aria-label="CENTRALIZED OFFICE REVENUE ENGINE" /><path
   fill="#ffffff"
   d="M 18.792,13.429 17.069,13.282 V 22.43 L 14.5,22.885 14.495,13.055 12.312,12.863 V 9.258 l 6.48,1.133 z m 4.89,7.842 -1.524,0.266 -0.177,-1.335 -1.485,0.192 -0.188,1.468 -1.963,0.349 1.943,-11.534 1.845,0.319 z m -1.973,-3.323 -0.408,-3.522 h -0.089 l -0.413,3.576 z M 13.218,32 C 22.005,32 29.127,24.836 29.127,16 29.127,7.162 22.006,0 13.219,0 7.71,0 2.856,2.816 0,7.098 l 4.408,0.777 1.214,9.286 C 5.626,17.146 5.709,17.157 5.709,17.157 L 7.04,8.338 11.45,9.11 V 23.423 L 8.667,23.91 v -6.15 c 0,0 0.104,-2.649 0.042,-3.102 0,0 -0.121,0.003 -0.123,-0.008 L 6.925,24.223 4.158,24.711 2.126,14.399 2.004,14.39 c -0.044,0.374 0.148,3.609 0.148,3.609 v 7.063 L 0.334,25.38 c 2.893,4.012 7.585,6.619 12.884,6.62 z"
   id="path1" />
<g
   id="g8"
   transform="translate(15.625484)">
	<path
   fill="#ffffff"
   d="m 54.008,2.332 c 1.391,-1.422 3.161,-2.133 5.31,-2.133 2.875,0 4.979,0.953 6.307,2.859 0.734,1.07 1.13,2.145 1.185,3.223 H 63.201 C 62.972,5.453 62.679,4.828 62.317,4.406 61.674,3.656 60.721,3.281 59.458,3.281 c -1.284,0 -2.3,0.529 -3.04,1.588 -0.742,1.059 -1.113,2.557 -1.113,4.494 0,1.937 0.392,3.389 1.175,4.354 0.784,0.965 1.779,1.447 2.986,1.447 1.236,0 2.182,-0.414 2.832,-1.242 0.357,-0.445 0.655,-1.113 0.894,-2.004 h 3.586 c -0.309,1.883 -1.1,3.414 -2.371,4.594 -1.271,1.181 -2.898,1.771 -4.886,1.771 -2.458,0 -4.39,-0.797 -5.797,-2.392 -1.407,-1.602 -2.11,-3.797 -2.11,-6.586 -0.007,-3.016 0.794,-5.34 2.394,-6.973 z"
   id="path2" />
	<path
   fill="#ffffff"
   d="m 80.956,14.297 h 3.553 v 3.504 h -3.553 z"
   id="path3" />
	<path
   fill="#ffffff"
   d="m 111.924,16.266 c -1.307,1.345 -3.191,2.017 -5.66,2.017 -2.469,0 -4.355,-0.672 -5.66,-2.017 -1.75,-1.647 -2.625,-4.023 -2.625,-7.125 0,-3.164 0.875,-5.539 2.625,-7.125 1.304,-1.344 3.191,-2.016 5.66,-2.016 2.469,0 4.354,0.672 5.66,2.016 1.74,1.586 2.611,3.961 2.611,7.125 0,3.101 -0.871,5.475 -2.611,7.125 z m -2.256,-2.625 c 0.84,-1.055 1.26,-2.555 1.26,-4.5 0,-1.938 -0.42,-3.436 -1.26,-4.494 -0.842,-1.058 -1.977,-1.588 -3.404,-1.588 -1.427,0 -2.57,0.527 -3.422,1.582 -0.854,1.055 -1.277,2.555 -1.277,4.5 0,1.945 0.426,3.445 1.277,4.5 0.851,1.056 1.99,1.582 3.422,1.582 1.43,0 2.562,-0.527 3.404,-1.582 z"
   id="path4" />
	<path
   fill="#ffffff"
   d="m 128.006,14.297 h 3.551 v 3.504 h -3.551 z"
   id="path5" />
	<path
   fill="#ffffff"
   d="m 157.258,0.973 c 0.637,0.273 1.176,0.676 1.615,1.207 0.365,0.438 0.654,0.922 0.867,1.453 0.215,0.531 0.32,1.137 0.32,1.816 0,0.82 -0.207,1.627 -0.621,2.42 -0.414,0.793 -1.098,1.354 -2.051,1.682 0.797,0.32 1.359,0.775 1.691,1.365 0.332,0.59 0.498,1.49 0.498,2.701 v 1.16 c 0,0.789 0.033,1.324 0.098,1.605 0.096,0.445 0.316,0.773 0.666,0.984 V 17.8 h -3.984 c -0.107,-0.383 -0.188,-0.691 -0.232,-0.926 -0.096,-0.484 -0.146,-0.98 -0.152,-1.488 l -0.023,-1.605 c -0.014,-1.102 -0.205,-1.836 -0.568,-2.203 -0.365,-0.367 -1.053,-0.551 -2.059,-0.551 H 149.8 V 17.8 h -3.527 V 0.528 h 8.264 c 1.176,0.023 2.082,0.171 2.721,0.445 z m -7.461,2.555 v 4.641 h 3.885 c 0.77,0 1.35,-0.094 1.736,-0.281 0.684,-0.328 1.021,-0.977 1.021,-1.945 0,-1.047 -0.33,-1.75 -0.99,-2.109 -0.371,-0.203 -0.928,-0.305 -1.67,-0.305 z"
   id="path6" />
	<path
   fill="#ffffff"
   d="m 175.057,14.297 h 3.551 v 3.504 h -3.551 z"
   id="path7" />
	<path
   fill="#ffffff"
   d="m 206.479,3.586 h -9.141 v 3.668 h 8.391 v 3 h -8.391 v 4.44 h 9.563 v 3.104 h -13.09 V 0.528 h 12.668 z"
   id="path8" />
</g>

</svg>
