<?xml version="1.0" encoding="utf-8"?>
<!-- Generator: Adobe Illustrator 16.0.0, SVG Export Plug-In . SVG Version: 6.00 Build 0)  -->
<!DOCTYPE svg PUBLIC "-//W3C//DTD SVG 1.1//EN" "http://www.w3.org/Graphics/SVG/1.1/DTD/svg11.dtd">
<svg version="1.1" id="Layer_1" xmlns="http://www.w3.org/2000/svg" xmlns:xlink="http://www.w3.org/1999/xlink" x="0px" y="0px"
	 width="224.014px" height="32px" viewBox="0 0 224.014 32" enable-background="new 0 0 224.014 32" xml:space="preserve">
<path d="M18.792,13.429l-1.723-0.147v9.148L14.5,22.885l-0.005-9.83l-2.183-0.192V9.258l6.48,1.133V13.429z M23.682,21.271
	l-1.524,0.266l-0.177-1.335l-1.485,0.192l-0.188,1.468l-1.963,0.349l1.943-11.534l1.845,0.319L23.682,21.271z M21.709,17.948
	l-0.408-3.522h-0.089l-0.413,3.576L21.709,17.948z M13.218,32c8.787,0,15.909-7.164,15.909-16c0-8.838-7.121-16-15.908-16
	C7.71,0,2.856,2.816,0,7.098l4.408,0.777l1.214,9.286c0.004-0.015,0.087-0.004,0.087-0.004l1.331-8.819l4.41,0.772v14.313
	L8.667,23.91v-6.15c0,0,0.104-2.649,0.042-3.102c0,0-0.121,0.003-0.123-0.008l-1.661,9.573l-2.767,0.488L2.126,14.399L2.004,14.39
	c-0.044,0.374,0.148,3.609,0.148,3.609v7.063l-1.818,0.318C3.227,29.392,7.919,31.999,13.218,32L13.218,32z"/>
<g>
	<path d="M54.008,2.332c1.391-1.422,3.161-2.133,5.31-2.133c2.875,0,4.979,0.953,6.307,2.859c0.734,1.07,1.13,2.145,1.185,3.223
		h-3.609c-0.229-0.828-0.522-1.453-0.884-1.875c-0.643-0.75-1.596-1.125-2.859-1.125c-1.284,0-2.3,0.529-3.04,1.588
		c-0.742,1.059-1.113,2.557-1.113,4.494s0.392,3.389,1.175,4.354c0.784,0.965,1.779,1.447,2.986,1.447
		c1.236,0,2.182-0.414,2.832-1.242c0.357-0.445,0.655-1.113,0.894-2.004h3.586c-0.309,1.883-1.1,3.414-2.371,4.594
		c-1.271,1.181-2.898,1.771-4.886,1.771c-2.458,0-4.39-0.797-5.797-2.392c-1.407-1.602-2.11-3.797-2.11-6.586
		C51.607,6.289,52.408,3.965,54.008,2.332z"/>
	<path d="M80.956,14.297h3.553v3.504h-3.553V14.297z"/>
	<path d="M111.924,16.266c-1.307,1.345-3.191,2.017-5.66,2.017s-4.355-0.672-5.66-2.017c-1.75-1.647-2.625-4.023-2.625-7.125
		c0-3.164,0.875-5.539,2.625-7.125C101.908,0.672,103.795,0,106.264,0s4.354,0.672,5.66,2.016c1.74,1.586,2.611,3.961,2.611,7.125
		C114.535,12.242,113.664,14.616,111.924,16.266z M109.668,13.641c0.84-1.055,1.26-2.555,1.26-4.5c0-1.938-0.42-3.436-1.26-4.494
		c-0.842-1.058-1.977-1.588-3.404-1.588s-2.57,0.527-3.422,1.582c-0.854,1.055-1.277,2.555-1.277,4.5c0,1.945,0.426,3.445,1.277,4.5
		c0.851,1.056,1.99,1.582,3.422,1.582C107.694,15.223,108.826,14.696,109.668,13.641z"/>
	<path d="M128.006,14.297h3.551v3.504h-3.551V14.297z"/>
	<path d="M157.258,0.973c0.637,0.273,1.176,0.676,1.615,1.207c0.365,0.438,0.654,0.922,0.867,1.453
		c0.215,0.531,0.32,1.137,0.32,1.816c0,0.82-0.207,1.627-0.621,2.42s-1.098,1.354-2.051,1.682c0.797,0.32,1.359,0.775,1.691,1.365
		c0.332,0.59,0.498,1.49,0.498,2.701v1.16c0,0.789,0.033,1.324,0.098,1.605c0.096,0.445,0.316,0.773,0.666,0.984V17.8h-3.984
		c-0.107-0.383-0.188-0.691-0.232-0.926c-0.096-0.484-0.146-0.98-0.152-1.488l-0.023-1.605c-0.014-1.102-0.205-1.836-0.568-2.203
		c-0.365-0.367-1.053-0.551-2.059-0.551h-3.523V17.8h-3.527V0.528h8.264C155.713,0.551,156.619,0.699,157.258,0.973z M149.797,3.528
		v4.641h3.885c0.77,0,1.35-0.094,1.736-0.281c0.684-0.328,1.021-0.977,1.021-1.945c0-1.047-0.33-1.75-0.99-2.109
		c-0.371-0.203-0.928-0.305-1.67-0.305L149.797,3.528L149.797,3.528z"/>
	<path d="M175.057,14.297h3.551v3.504h-3.551V14.297z"/>
	<path d="M206.479,3.586h-9.141v3.668h8.391v3h-8.391v4.44h9.563v3.104h-13.09V0.528h12.668V3.586z"/>
</g>
<g>
	<path d="M41.049,21.365c0.602,0.574,0.936,1.227,1.002,1.957h-1.137c-0.129-0.555-0.386-0.994-0.771-1.318s-0.925-0.486-1.62-0.486
		c-0.848,0-1.532,0.298-2.054,0.894s-0.782,1.509-0.782,2.739c0,1.008,0.235,1.825,0.706,2.452s1.173,0.94,2.106,0.94
		c0.859,0,1.514-0.33,1.963-0.99c0.238-0.348,0.416-0.805,0.533-1.371h1.137c-0.102,0.906-0.438,1.666-1.008,2.279
		c-0.684,0.738-1.605,1.107-2.766,1.107c-1,0-1.84-0.303-2.52-0.908c-0.895-0.801-1.342-2.037-1.342-3.709
		c0-1.27,0.336-2.311,1.008-3.123c0.727-0.883,1.729-1.324,3.006-1.324C39.602,20.504,40.448,20.791,41.049,21.365z"/>
	<path d="M47.319,23.243c0.418,0.209,0.736,0.479,0.955,0.812c0.211,0.316,0.352,0.686,0.422,1.107
		c0.063,0.289,0.094,0.75,0.094,1.383h-4.6c0.02,0.637,0.17,1.147,0.451,1.532s0.717,0.577,1.307,0.577
		c0.551,0,0.99-0.182,1.318-0.545c0.188-0.211,0.32-0.455,0.398-0.732h1.037c-0.027,0.23-0.118,0.487-0.272,0.771
		s-0.327,0.515-0.519,0.694c-0.32,0.313-0.717,0.523-1.189,0.633c-0.254,0.063-0.541,0.094-0.861,0.094
		c-0.781,0-1.443-0.284-1.986-0.853s-0.814-1.364-0.814-2.388c0-1.008,0.273-1.826,0.82-2.455s1.262-0.943,2.145-0.943
		C46.469,22.93,46.901,23.034,47.319,23.243z M47.705,25.707c-0.043-0.457-0.143-0.822-0.299-1.096
		c-0.289-0.508-0.771-0.762-1.447-0.762c-0.484,0-0.891,0.175-1.219,0.524s-0.502,0.794-0.521,1.333H47.705z"/>
	<path d="M50.084,23.07h1.002v0.891c0.297-0.367,0.611-0.631,0.943-0.791s0.701-0.24,1.107-0.24c0.891,0,1.492,0.311,1.805,0.932
		c0.172,0.34,0.258,0.826,0.258,1.459v4.025h-1.072v-3.955c0-0.383-0.057-0.691-0.17-0.926c-0.188-0.391-0.527-0.586-1.02-0.586
		c-0.25,0-0.455,0.025-0.615,0.076c-0.289,0.086-0.543,0.258-0.762,0.516c-0.176,0.207-0.29,0.421-0.343,0.642
		s-0.079,0.536-0.079,0.946v3.287h-1.055V23.07z"/>
	<path d="M56.969,21.318h1.066v1.752h1.002v0.861h-1.002v4.096c0,0.219,0.074,0.365,0.223,0.439c0.082,0.043,0.219,0.064,0.41,0.064
		c0.051,0,0.105-0.001,0.164-0.003s0.127-0.007,0.205-0.015v0.832c-0.121,0.035-0.247,0.061-0.378,0.076s-0.272,0.023-0.425,0.023
		c-0.492,0-0.826-0.126-1.002-0.378s-0.264-0.579-0.264-0.981v-4.154h-0.85V23.07h0.85V21.318z"/>
	<path d="M60.121,23.07h1.002v1.084c0.082-0.211,0.283-0.468,0.604-0.771s0.689-0.454,1.107-0.454c0.02,0,0.053,0.002,0.1,0.006
		s0.127,0.012,0.24,0.023v1.113c-0.063-0.012-0.12-0.02-0.173-0.023s-0.11-0.006-0.173-0.006c-0.531,0-0.939,0.171-1.225,0.513
		s-0.428,0.735-0.428,1.181v3.609h-1.055V23.07z"/>
	<path d="M67.451,25.543c0.242-0.031,0.404-0.133,0.486-0.305c0.047-0.094,0.07-0.229,0.07-0.404c0-0.359-0.128-0.62-0.384-0.782
		s-0.622-0.243-1.099-0.243c-0.551,0-0.941,0.148-1.172,0.445c-0.129,0.164-0.213,0.408-0.252,0.732h-0.984
		c0.02-0.773,0.271-1.312,0.753-1.614s1.042-0.454,1.679-0.454c0.738,0,1.338,0.141,1.799,0.422
		c0.457,0.281,0.686,0.719,0.686,1.313v3.615c0,0.109,0.022,0.197,0.067,0.264s0.14,0.1,0.284,0.1c0.047,0,0.1-0.003,0.158-0.009
		s0.121-0.015,0.188-0.026v0.779c-0.164,0.047-0.289,0.076-0.375,0.088s-0.203,0.018-0.352,0.018c-0.363,0-0.627-0.129-0.791-0.387
		c-0.086-0.137-0.146-0.33-0.182-0.58c-0.215,0.281-0.523,0.525-0.926,0.732s-0.846,0.311-1.33,0.311
		c-0.582,0-1.058-0.177-1.427-0.53s-0.554-0.796-0.554-1.327c0-0.582,0.182-1.033,0.545-1.354s0.84-0.518,1.43-0.592L67.451,25.543z
		 M65.231,28.396c0.223,0.176,0.486,0.264,0.791,0.264c0.371,0,0.73-0.086,1.078-0.258c0.586-0.285,0.879-0.752,0.879-1.4v-0.85
		c-0.129,0.082-0.295,0.15-0.498,0.205s-0.402,0.094-0.598,0.117l-0.639,0.082c-0.383,0.051-0.67,0.131-0.861,0.24
		c-0.324,0.184-0.486,0.477-0.486,0.879C64.897,27.98,65.008,28.221,65.231,28.396z"/>
	<path d="M70.791,20.738h1.055v8.607h-1.055V20.738z"/>
	<path d="M73.428,20.738H74.5v1.195h-1.072V20.738z M73.428,23.1H74.5v6.246h-1.072V23.1z"/>
	<path d="M75.625,28.514l3.721-4.5h-3.445V23.07h4.863v0.861l-3.697,4.471h3.809v0.943h-5.25V28.514z"/>
	<path d="M86.002,23.243c0.418,0.209,0.736,0.479,0.955,0.812c0.211,0.316,0.352,0.686,0.422,1.107
		c0.063,0.289,0.094,0.75,0.094,1.383h-4.6c0.02,0.637,0.17,1.147,0.451,1.532s0.717,0.577,1.307,0.577
		c0.551,0,0.99-0.182,1.318-0.545c0.188-0.211,0.32-0.455,0.398-0.732h1.037c-0.027,0.23-0.118,0.487-0.272,0.771
		s-0.327,0.515-0.519,0.694c-0.32,0.313-0.717,0.523-1.189,0.633c-0.254,0.063-0.541,0.094-0.861,0.094
		c-0.781,0-1.443-0.284-1.986-0.853s-0.814-1.364-0.814-2.388c0-1.008,0.273-1.826,0.82-2.455s1.262-0.943,2.145-0.943
		C85.153,22.93,85.584,23.034,86.002,23.243z M86.389,25.707c-0.043-0.457-0.143-0.822-0.299-1.096
		c-0.289-0.508-0.771-0.762-1.447-0.762c-0.484,0-0.891,0.175-1.219,0.524s-0.502,0.794-0.521,1.333H86.389z"/>
	<path d="M92.231,23.264c0.188,0.117,0.4,0.322,0.639,0.615v-3.17h1.014v8.637h-0.949v-0.873c-0.246,0.387-0.537,0.666-0.873,0.838
		s-0.721,0.258-1.155,0.258c-0.699,0-1.305-0.294-1.816-0.882s-0.768-1.37-0.768-2.347c0-0.914,0.233-1.706,0.7-2.376
		s1.134-1.005,2.001-1.005C91.505,22.959,91.907,23.061,92.231,23.264z M89.864,27.969c0.285,0.453,0.742,0.68,1.371,0.68
		c0.489,0,0.889-0.21,1.204-0.63s0.473-1.022,0.473-1.808c0-0.793-0.162-1.38-0.486-1.761s-0.725-0.571-1.202-0.571
		c-0.531,0-0.962,0.203-1.292,0.609s-0.495,1.004-0.495,1.793C89.436,26.953,89.578,27.516,89.864,27.969z"/>
	<path d="M109.34,21.969c0.57,0.762,0.855,1.736,0.855,2.924c0,1.285-0.326,2.354-0.979,3.205c-0.766,1-1.857,1.5-3.275,1.5
		c-1.324,0-2.365-0.438-3.123-1.313c-0.676-0.844-1.014-1.91-1.014-3.199c0-1.164,0.289-2.16,0.867-2.988
		c0.742-1.063,1.84-1.594,3.293-1.594C107.485,20.504,108.61,20.992,109.34,21.969z M108.312,27.45
		c0.459-0.736,0.688-1.583,0.688-2.54c0-1.012-0.265-1.826-0.794-2.443s-1.253-0.926-2.171-0.926c-0.891,0-1.617,0.306-2.18,0.917
		s-0.844,1.513-0.844,2.704c0,0.953,0.241,1.757,0.724,2.411s1.265,0.981,2.347,0.981C107.11,28.555,107.853,28.187,108.312,27.45z"
		/>
	<path d="M111.936,21.154c0.246-0.359,0.721-0.539,1.424-0.539c0.066,0,0.135,0.002,0.205,0.006s0.15,0.01,0.24,0.018V21.6
		c-0.109-0.008-0.188-0.013-0.237-0.015s-0.095-0.003-0.138-0.003c-0.32,0-0.512,0.083-0.574,0.249s-0.094,0.589-0.094,1.269h1.043
		v0.832h-1.055v5.414h-1.043v-5.414h-0.873V23.1h0.873v-0.984C111.723,21.678,111.799,21.357,111.936,21.154z"/>
	<path d="M115.059,21.154c0.246-0.359,0.721-0.539,1.424-0.539c0.066,0,0.135,0.002,0.205,0.006s0.15,0.01,0.24,0.018V21.6
		c-0.109-0.008-0.188-0.013-0.237-0.015s-0.095-0.003-0.138-0.003c-0.32,0-0.512,0.083-0.574,0.249s-0.094,0.589-0.094,1.269h1.043
		v0.832h-1.055v5.414h-1.043v-5.414h-0.873V23.1h0.873v-0.984C114.846,21.678,114.922,21.357,115.059,21.154z"/>
	<path d="M117.901,20.738h1.072v1.195h-1.072V20.738z M117.901,23.1h1.072v6.246h-1.072V23.1z"/>
	<path d="M124.712,23.404c0.443,0.344,0.71,0.936,0.8,1.775h-1.025c-0.063-0.387-0.205-0.708-0.428-0.964s-0.58-0.384-1.072-0.384
		c-0.672,0-1.152,0.328-1.441,0.984c-0.188,0.426-0.281,0.951-0.281,1.576c0,0.629,0.133,1.158,0.398,1.588s0.684,0.645,1.254,0.645
		c0.438,0,0.784-0.134,1.04-0.401s0.433-0.634,0.53-1.099h1.025c-0.117,0.832-0.41,1.44-0.879,1.825s-1.068,0.577-1.799,0.577
		c-0.82,0-1.475-0.3-1.963-0.899s-0.732-1.349-0.732-2.247c0-1.102,0.268-1.959,0.803-2.572s1.217-0.92,2.045-0.92
		C123.694,22.889,124.269,23.061,124.712,23.404z"/>
	<path d="M130.475,23.243c0.418,0.209,0.736,0.479,0.955,0.812c0.211,0.316,0.352,0.686,0.422,1.107
		c0.063,0.289,0.094,0.75,0.094,1.383h-4.6c0.02,0.637,0.17,1.147,0.451,1.532s0.717,0.577,1.307,0.577
		c0.551,0,0.99-0.182,1.318-0.545c0.188-0.211,0.32-0.455,0.398-0.732h1.037c-0.027,0.23-0.118,0.487-0.272,0.771
		s-0.327,0.515-0.519,0.694c-0.32,0.313-0.717,0.523-1.189,0.633c-0.254,0.063-0.541,0.094-0.861,0.094
		c-0.781,0-1.443-0.284-1.986-0.853s-0.814-1.364-0.814-2.388c0-1.008,0.273-1.826,0.82-2.455s1.262-0.943,2.145-0.943
		C129.625,22.93,130.057,23.034,130.475,23.243z M130.862,25.707c-0.043-0.457-0.143-0.822-0.299-1.096
		c-0.289-0.508-0.771-0.762-1.447-0.762c-0.484,0-0.891,0.175-1.219,0.524s-0.502,0.794-0.521,1.333H130.862z"/>
	<path d="M136.856,20.738h3.984c0.656,0,1.197,0.096,1.623,0.287c0.809,0.367,1.213,1.045,1.213,2.033
		c0,0.516-0.106,0.938-0.319,1.266s-0.511,0.592-0.894,0.791c0.336,0.137,0.589,0.316,0.759,0.539s0.265,0.584,0.284,1.084
		l0.041,1.154c0.012,0.328,0.039,0.572,0.082,0.732c0.07,0.273,0.195,0.449,0.375,0.527v0.193h-1.43
		c-0.039-0.074-0.07-0.17-0.094-0.287s-0.043-0.344-0.059-0.68l-0.07-1.436c-0.027-0.563-0.236-0.939-0.627-1.131
		c-0.223-0.105-0.572-0.158-1.049-0.158h-2.654v3.691h-1.166V20.738z M140.717,24.682c0.547,0,0.979-0.109,1.298-0.328
		s0.478-0.613,0.478-1.184c0-0.613-0.223-1.031-0.668-1.254c-0.238-0.117-0.557-0.176-0.955-0.176h-2.848v2.941H140.717z"/>
	<path d="M149.149,23.243c0.418,0.209,0.736,0.479,0.955,0.812c0.211,0.316,0.352,0.686,0.422,1.107
		c0.063,0.289,0.094,0.75,0.094,1.383h-4.6c0.02,0.637,0.17,1.147,0.451,1.532s0.717,0.577,1.307,0.577
		c0.551,0,0.99-0.182,1.318-0.545c0.188-0.211,0.32-0.455,0.398-0.732h1.037c-0.027,0.23-0.118,0.487-0.272,0.771
		s-0.327,0.515-0.519,0.694c-0.32,0.313-0.717,0.523-1.189,0.633c-0.254,0.063-0.541,0.094-0.861,0.094
		c-0.781,0-1.443-0.284-1.986-0.853s-0.814-1.364-0.814-2.388c0-1.008,0.273-1.826,0.82-2.455s1.262-0.943,2.145-0.943
		C148.299,22.93,148.731,23.034,149.149,23.243z M149.535,25.707c-0.043-0.457-0.143-0.822-0.299-1.096
		c-0.289-0.508-0.771-0.762-1.447-0.762c-0.484,0-0.891,0.175-1.219,0.524s-0.502,0.794-0.521,1.333H149.535z"/>
	<path d="M152.43,23.07l1.676,5.109l1.752-5.109h1.154l-2.367,6.275h-1.125l-2.314-6.275H152.43z"/>
	<path d="M161.823,23.243c0.418,0.209,0.736,0.479,0.955,0.812c0.211,0.316,0.352,0.686,0.422,1.107
		c0.063,0.289,0.094,0.75,0.094,1.383h-4.6c0.02,0.637,0.17,1.147,0.451,1.532s0.717,0.577,1.307,0.577
		c0.551,0,0.99-0.182,1.318-0.545c0.188-0.211,0.32-0.455,0.398-0.732h1.037c-0.027,0.23-0.118,0.487-0.272,0.771
		s-0.327,0.515-0.519,0.694c-0.32,0.313-0.717,0.523-1.189,0.633c-0.254,0.063-0.541,0.094-0.861,0.094
		c-0.781,0-1.443-0.284-1.986-0.853s-0.814-1.364-0.814-2.388c0-1.008,0.273-1.826,0.82-2.455s1.262-0.943,2.145-0.943
		C160.973,22.93,161.405,23.034,161.823,23.243z M162.209,25.707c-0.043-0.457-0.143-0.822-0.299-1.096
		c-0.289-0.508-0.771-0.762-1.447-0.762c-0.484,0-0.891,0.175-1.219,0.524s-0.502,0.794-0.521,1.333H162.209z"/>
	<path d="M164.588,23.07h1.002v0.891c0.297-0.367,0.611-0.631,0.943-0.791s0.701-0.24,1.107-0.24c0.891,0,1.492,0.311,1.805,0.932
		c0.172,0.34,0.258,0.826,0.258,1.459v4.025h-1.072v-3.955c0-0.383-0.057-0.691-0.17-0.926c-0.188-0.391-0.527-0.586-1.02-0.586
		c-0.25,0-0.455,0.025-0.615,0.076c-0.289,0.086-0.543,0.258-0.762,0.516c-0.176,0.207-0.29,0.421-0.343,0.642
		s-0.079,0.536-0.079,0.946v3.287h-1.055V23.07z"/>
	<path d="M172.317,23.07v4.166c0,0.32,0.051,0.582,0.152,0.785c0.188,0.375,0.537,0.563,1.049,0.563c0.734,0,1.234-0.328,1.5-0.984
		c0.145-0.352,0.217-0.834,0.217-1.447V23.07h1.055v6.275h-0.996l0.012-0.926c-0.137,0.238-0.307,0.439-0.51,0.604
		c-0.402,0.328-0.891,0.492-1.465,0.492c-0.895,0-1.504-0.299-1.828-0.896c-0.176-0.32-0.264-0.748-0.264-1.283V23.07H172.317z"/>
	<path d="M181.844,23.243c0.418,0.209,0.736,0.479,0.955,0.812c0.211,0.316,0.352,0.686,0.422,1.107
		c0.063,0.289,0.094,0.75,0.094,1.383h-4.6c0.02,0.637,0.17,1.147,0.451,1.532s0.717,0.577,1.307,0.577
		c0.551,0,0.99-0.182,1.318-0.545c0.188-0.211,0.32-0.455,0.398-0.732h1.037c-0.027,0.23-0.118,0.487-0.272,0.771
		s-0.327,0.515-0.519,0.694c-0.32,0.313-0.717,0.523-1.189,0.633c-0.254,0.063-0.541,0.094-0.861,0.094
		c-0.781,0-1.443-0.284-1.986-0.853s-0.814-1.364-0.814-2.388c0-1.008,0.273-1.826,0.82-2.455s1.262-0.943,2.145-0.943
		C180.994,22.93,181.426,23.034,181.844,23.243z M182.231,25.707c-0.043-0.457-0.143-0.822-0.299-1.096
		c-0.289-0.508-0.771-0.762-1.447-0.762c-0.484,0-0.891,0.175-1.219,0.524s-0.502,0.794-0.521,1.333H182.231z"/>
	<path d="M188.196,20.738h6.275v1.055h-5.139v2.613h4.752v0.996h-4.752v2.918h5.227v1.025h-6.363V20.738z"/>
	<path d="M195.948,23.07h1.002v0.891c0.297-0.367,0.611-0.631,0.943-0.791s0.701-0.24,1.107-0.24c0.891,0,1.492,0.311,1.805,0.932
		c0.172,0.34,0.258,0.826,0.258,1.459v4.025h-1.072v-3.955c0-0.383-0.057-0.691-0.17-0.926c-0.188-0.391-0.527-0.586-1.02-0.586
		c-0.25,0-0.455,0.025-0.615,0.076c-0.289,0.086-0.543,0.258-0.762,0.516c-0.176,0.207-0.29,0.421-0.343,0.642
		s-0.079,0.536-0.079,0.946v3.287h-1.055V23.07z"/>
	<path d="M206.125,23.322c0.199,0.137,0.402,0.336,0.609,0.598v-0.791h0.973v5.707c0,0.797-0.117,1.426-0.352,1.887
		c-0.438,0.852-1.264,1.277-2.479,1.277c-0.676,0-1.244-0.151-1.705-0.454s-0.719-0.776-0.773-1.421h1.072
		c0.051,0.281,0.152,0.498,0.305,0.65c0.238,0.234,0.613,0.352,1.125,0.352c0.809,0,1.338-0.285,1.588-0.855
		c0.148-0.336,0.217-0.936,0.205-1.799c-0.211,0.32-0.465,0.559-0.762,0.715s-0.689,0.234-1.178,0.234
		c-0.68,0-1.274-0.241-1.784-0.724s-0.765-1.28-0.765-2.394c0-1.051,0.257-1.871,0.771-2.461s1.134-0.885,1.86-0.885
		C205.328,22.959,205.758,23.08,206.125,23.322z M206.254,24.453c-0.32-0.375-0.729-0.563-1.225-0.563
		c-0.742,0-1.25,0.348-1.523,1.043c-0.145,0.371-0.217,0.857-0.217,1.459c0,0.707,0.144,1.245,0.431,1.614s0.673,0.554,1.157,0.554
		c0.758,0,1.291-0.342,1.6-1.025c0.172-0.387,0.258-0.838,0.258-1.354C206.735,25.404,206.574,24.828,206.254,24.453z"/>
	<path d="M209.295,20.738h1.072v1.195h-1.072V20.738z M209.295,23.1h1.072v6.246h-1.072V23.1z"/>
	<path d="M211.961,23.07h1.002v0.891c0.297-0.367,0.611-0.631,0.943-0.791s0.701-0.24,1.107-0.24c0.891,0,1.492,0.311,1.805,0.932
		c0.172,0.34,0.258,0.826,0.258,1.459v4.025h-1.072v-3.955c0-0.383-0.057-0.691-0.17-0.926c-0.188-0.391-0.527-0.586-1.02-0.586
		c-0.25,0-0.455,0.025-0.615,0.076c-0.289,0.086-0.543,0.258-0.762,0.516c-0.176,0.207-0.29,0.421-0.343,0.642
		s-0.079,0.536-0.079,0.946v3.287h-1.055V23.07z"/>
	<path d="M222.543,23.243c0.418,0.209,0.736,0.479,0.955,0.812c0.211,0.316,0.352,0.686,0.422,1.107
		c0.063,0.289,0.094,0.75,0.094,1.383h-4.6c0.02,0.637,0.17,1.147,0.451,1.532s0.717,0.577,1.307,0.577
		c0.551,0,0.99-0.182,1.318-0.545c0.188-0.211,0.32-0.455,0.398-0.732h1.037c-0.027,0.23-0.118,0.487-0.272,0.771
		s-0.327,0.515-0.519,0.694c-0.32,0.313-0.717,0.523-1.189,0.633c-0.254,0.063-0.541,0.094-0.861,0.094
		c-0.781,0-1.443-0.284-1.986-0.853s-0.814-1.364-0.814-2.388c0-1.008,0.273-1.826,0.82-2.455s1.262-0.943,2.145-0.943
		C221.694,22.93,222.125,23.034,222.543,23.243z M222.93,25.707c-0.043-0.457-0.143-0.822-0.299-1.096
		c-0.289-0.508-0.771-0.762-1.447-0.762c-0.484,0-0.891,0.175-1.219,0.524s-0.502,0.794-0.521,1.333H222.93z"/>
</g>
</svg>
