<?xml version="1.0" encoding="UTF-8" standalone="no"?>
<svg
   viewBox="0 0 576 512"
   version="1.1"
   id="svg1"
   sodipodi:docname="etix-ticket.svg"
   inkscape:version="1.4.2 (ebf0e940, 2025-05-08)"
   xmlns:inkscape="http://www.inkscape.org/namespaces/inkscape"
   xmlns:sodipodi="http://sodipodi.sourceforge.net/DTD/sodipodi-0.dtd"
   xmlns="http://www.w3.org/2000/svg"
   xmlns:svg="http://www.w3.org/2000/svg">
  <defs
     id="defs1" />
  <sodipodi:namedview
     id="namedview1"
     pagecolor="#ffffff"
     bordercolor="#000000"
     borderopacity="0.25"
     inkscape:showpageshadow="2"
     inkscape:pageopacity="0.0"
     inkscape:pagecheckerboard="0"
     inkscape:deskcolor="#d1d1d1"
     inkscape:zoom="1.4444444"
     inkscape:cx="287.3077"
     inkscape:cy="256.15385"
     inkscape:window-width="1920"
     inkscape:window-height="931"
     inkscape:window-x="1920"
     inkscape:window-y="31"
     inkscape:window-maximized="1"
     inkscape:current-layer="svg1" />
  <!--! Font Awesome Free 7.1.0 by @fontawesome - https://fontawesome.com License - https://fontawesome.com/license/free (Icons: CC BY 4.0, Fonts: SIL OFL 1.1, Code: MIT License) Copyright 2025 Fonticons, Inc. -->
  <path
     d="M 64,64 C 28.7,64 0,92.7 0,128 v 64 c 0,8.8 7.3992188,15.69961 15.699219,18.59961 C 34.499219,217.09961 48,235 48,256 48,277 34.499219,294.90039 15.699219,301.40039 7.3992188,304.30039 0,311.2 0,320 v 64 c 0,35.3 28.7,64 64,64 h 448 c 35.3,0 64,-28.7 64,-64 v -64 c 0,-8.8 -7.39922,-15.69961 -15.69922,-18.59961 C 541.50078,294.90039 528,277 528,256 528,235 541.50078,217.09961 560.30078,210.59961 568.60078,207.69961 576,200.8 576,192 V 128 C 576,92.7 547.3,64 512,64 Z m 222.56641,36.96289 c 93.78987,0.62824 157.76719,73.82737 157.89843,148.04883 0.15903,89.93586 -66.5708,163.07258 -157.89843,162.01758 -86.23537,-0.99617 -155.03125,-69.41021 -155.03125,-155.03321 0,-85.623 70.18271,-155.60154 155.03125,-155.0332 z m 3.08007,43.1875 c -18.62128,-0.52369 -37.46492,4.2428 -55.41992,14.4668 l -1.21679,0.69531 -0.32422,0.32031 c -8.983,5.349 -17.23683,11.76427 -24.54883,19.07227 -7.682,7.68 -13.99097,16.03945 -18.66797,24.68945 -17.237,30.615 -18.00823,66.50366 -2.11523,98.47266 17.471,35.133 52.20743,60.20459 90.64843,65.43359 l 0.23242,0.0293 c 30.202,3.418 62.91354,-9.22103 87.39454,-33.70703 0.504,-0.487 1.00795,-0.97661 1.50195,-1.47461 20.827,-20.827 32.75031,-45.69163 33.57031,-70.01563 l 0.004,-0.48047 c -0.141,-11.201 -5.49708,-20.0359 -14.33008,-23.6289 -8.534,-3.471 -18.44405,-1.32058 -25.24805,5.48242 -4.405,4.406 -7.03822,10.4372 -7.44922,17.0332 -2.53,18.502 -13.12465,32.4625 -21.59765,40.9375 -18.459,18.46 -44.06919,23.53031 -65.74219,14.07031 l 97.24023,-97.24023 c 7.032,-7.034 10.42332,-14.54255 10.07032,-22.31055 -0.312,-6.917 -3.76452,-13.49959 -9.72852,-18.55859 -16.421,-15.732 -34.79361,-25.98445 -53.84961,-30.56445 l -1.91797,-0.44141 c -6.1165,-1.344 -12.29876,-2.10669 -18.50586,-2.28125 z m -2.49218,47.68359 c 10.52512,0.22313 21.06568,3.42063 30.92968,9.51563 l -84.85742,84.85156 c -12.24,-19.377 -13.09362,-41.35906 -1.89062,-60.53906 l 0.14843,-0.26953 c 2.772,-5.077 6.66468,-10.19011 11.26368,-14.78711 3.196,-3.198 6.65153,-6.05802 10.14453,-8.41602 l 3.42383,-2.02539 c 9.8035,-5.8025 20.31276,-8.5532 30.83789,-8.33008 z"
     style="fill:currentColor"
     id="path6" />
</svg>
