<?xml version="1.0" encoding="UTF-8" standalone="no"?>
<svg
   viewBox="0 0 576 512"
   version="1.1"
   id="svg1"
   sodipodi:docname="etix.svg"
   inkscape:version="1.4.2 (ebf0e940, 2025-05-08)"
   xmlns:inkscape="http://www.inkscape.org/namespaces/inkscape"
   xmlns:sodipodi="http://sodipodi.sourceforge.net/DTD/sodipodi-0.dtd"
   xmlns="http://www.w3.org/2000/svg"
   xmlns:svg="http://www.w3.org/2000/svg">
  <defs
     id="defs1" />
  <sodipodi:namedview
     id="namedview1"
     pagecolor="#ffffff"
     bordercolor="#000000"
     borderopacity="0.25"
     inkscape:showpageshadow="2"
     inkscape:pageopacity="0.0"
     inkscape:pagecheckerboard="0"
     inkscape:deskcolor="#d1d1d1"
     inkscape:zoom="1.4444444"
     inkscape:cx="288"
     inkscape:cy="256.15385"
     inkscape:window-width="1920"
     inkscape:window-height="931"
     inkscape:window-x="1920"
     inkscape:window-y="31"
     inkscape:window-maximized="1"
     inkscape:current-layer="svg1" />
  <path
     id="path75"
     style="display:inline;fill:#1a1a1a;stroke-width:5.60778"
     d="M 288 0.70507812 A 255.29424 255.29424 0 0 0 32.705078 256 A 255.29424 255.29424 0 0 0 288 511.29492 A 255.29424 255.29424 0 0 0 543.29492 256 A 255.29424 255.29424 0 0 0 288 0.70507812 z M 289.05859 72.005859 C 289.42521 72.013674 289.79169 72.022896 290.1582 72.033203 C 300.36773 72.320327 310.53518 73.574523 320.5957 75.785156 L 323.75 76.509766 C 355.09362 84.043025 385.31274 100.90694 412.32227 126.7832 C 422.13196 135.10432 427.81103 145.93335 428.32422 157.31055 C 428.90484 170.08748 423.32806 182.43427 411.76172 194.00391 L 251.82422 353.94727 C 255.79051 355.67844 259.8595 357.00444 263.96094 358.14648 C 264.95267 358.4226 265.94555 358.68782 266.94336 358.92969 C 268.12523 359.21612 269.33022 359.32987 270.51953 359.56836 C 271.35812 359.70211 272.19141 359.87182 273.0293 360.01562 C 273.62707 360.10692 274.21836 360.24352 274.81641 360.33398 C 276.32444 360.57837 277.81232 360.98613 279.33008 361.13867 C 279.33199 361.13886 279.33403 361.13848 279.33594 361.13867 C 279.60017 361.16473 279.86648 361.15545 280.13086 361.17969 C 284.30128 361.56206 288.49158 361.63354 292.68164 361.44727 C 293.24104 361.4228 293.80019 361.41568 294.35938 361.38086 C 294.70047 361.35956 295.03852 361.27992 295.37891 361.24609 C 297.27852 361.10638 299.16446 360.75182 301.05859 360.49609 C 303.82352 360.12435 306.59089 359.79265 309.33203 359.17383 L 309.33398 359.17383 C 309.3352 359.17355 309.33668 359.1741 309.33789 359.17383 C 309.34049 359.17324 309.3431 359.17246 309.3457 359.17188 C 311.93207 358.587 314.47833 357.75183 317.03125 356.94922 C 318.95541 356.344 320.89777 355.84333 322.79688 355.11523 C 326.77157 353.59132 330.68893 351.81719 334.51953 349.75781 C 334.52083 349.75712 334.52214 349.75656 334.52344 349.75586 C 334.5255 349.75475 334.52723 349.75306 334.5293 349.75195 C 335.37705 349.29539 336.19581 348.754 337.03516 348.27148 C 337.03764 348.27006 337.04049 348.269 337.04297 348.26758 C 340.16377 346.47487 343.21994 344.49738 346.20703 342.3457 C 347.24695 341.59659 348.28887 340.85269 349.31055 340.06055 C 349.31308 340.05858 349.31583 340.05665 349.31836 340.05469 L 349.32422 340.04883 C 352.98173 337.21057 356.56342 334.1946 359.95312 330.80469 C 363.43726 327.31973 367.14016 323.2701 370.79883 318.68164 C 375.65213 312.59496 380.36459 305.47415 384.45312 297.54492 C 384.98779 296.50804 385.57422 295.54191 386.08398 294.47461 C 386.08424 294.47408 386.08373 294.47319 386.08398 294.47266 C 387.5533 291.39625 388.91442 288.19416 390.13281 284.86914 C 392.56959 278.21911 394.43817 271.0788 395.47852 263.4707 C 395.64752 260.7584 396.04571 258.104 396.66016 255.53516 C 397.2746 252.96631 398.10593 250.48226 399.14258 248.11133 C 399.6609 246.92586 400.23009 245.76836 400.84961 244.64258 C 402.08865 242.39102 403.52791 240.2669 405.1543 238.29492 C 405.96749 237.30893 406.82674 236.36096 407.73242 235.45508 C 408.99184 234.19584 410.3346 233.06709 411.71289 232.00391 C 411.71789 231.99991 411.72382 231.99589 411.72852 231.99219 C 411.73035 231.99078 411.73255 231.9897 411.73438 231.98828 C 411.84705 231.90058 411.94482 231.79084 412.05859 231.70508 C 412.14805 231.63767 412.24586 231.5836 412.33789 231.52148 C 412.34091 231.51925 412.34464 231.51786 412.34766 231.51562 C 412.35066 231.51362 412.35253 231.5116 412.35547 231.50977 C 413.74782 230.47928 415.18525 229.54278 416.67188 228.71289 C 416.6772 228.70992 416.68217 228.70609 416.6875 228.70312 C 416.7055 228.69092 416.72339 228.67837 416.74219 228.66797 C 416.79303 228.6398 416.84642 228.61863 416.89844 228.59375 C 416.90406 228.59066 416.91039 228.58902 416.91602 228.58594 C 416.92102 228.58294 416.92499 228.58113 416.92969 228.57812 C 419.84296 226.97967 422.90786 225.76358 426.05859 224.95703 C 426.07709 224.95229 426.09478 224.94416 426.11328 224.93945 C 426.20368 224.90965 426.29277 224.87426 426.38477 224.85156 C 426.55016 224.81086 426.72089 224.80588 426.88672 224.76758 C 426.88734 224.76743 426.88805 224.76772 426.88867 224.76758 C 428.57092 224.37641 430.26671 224.06347 431.97852 223.9043 C 431.99217 223.90303 432.00587 223.90165 432.01953 223.90039 C 432.04813 223.89739 432.07687 223.89558 432.10547 223.89258 C 432.11897 223.89158 432.13298 223.88967 432.14648 223.88867 C 432.18588 223.88567 432.22618 223.87995 432.26562 223.87695 C 432.44004 223.86206 432.61454 223.84951 432.78906 223.83789 C 433.77753 223.77209 434.7675 223.76214 435.75781 223.78516 C 440.1366 223.82154 444.51737 224.58987 448.70703 226.21484 C 448.89234 226.28583 449.07729 226.35858 449.26172 226.43359 C 450.16921 226.80273 451.05385 227.20731 451.91602 227.64258 C 451.91654 227.64284 451.91744 227.64231 451.91797 227.64258 C 454.5055 228.94905 456.8849 230.54961 459.03906 232.41016 C 459.03945 232.41049 459.04063 232.40982 459.04102 232.41016 C 459.75879 233.0302 460.45033 233.68047 461.11719 234.35742 C 464.45363 237.74407 467.1441 241.82701 469.10156 246.46484 C 470.66737 250.17474 471.76473 254.23785 472.34766 258.58203 C 472.34774 258.58268 472.34757 258.58334 472.34766 258.58398 C 472.63896 260.75549 472.80305 262.99655 472.83203 265.29883 L 472.82227 266.08984 C 472.81168 266.40382 472.79861 266.71911 472.78516 267.0332 C 472.16768 282.14906 468.89041 297.37701 463.26562 312.32422 C 463.17344 312.56918 463.14035 312.81965 463.04688 313.06445 L 463.04688 313.06641 C 463.03947 313.08581 463.03085 313.1056 463.02344 313.125 C 462.57447 314.28316 461.94263 315.415 461.4707 316.57031 C 460.18546 319.71665 458.74274 322.83777 457.24609 325.95117 C 456.80739 326.8742 456.4562 327.81086 455.99414 328.73047 L 455.99414 328.73242 L 455.99414 328.73438 L 455.99219 328.73633 C 455.98855 328.74357 455.98411 328.75057 455.98047 328.75781 C 453.2007 334.28819 450.04524 339.73658 446.61328 345.12109 C 445.38482 347.04847 444.1481 348.96423 442.83789 350.86914 C 442.83709 350.87031 442.83674 350.87188 442.83594 350.87305 L 442.83398 350.875 L 442.83203 350.87695 L 442.83203 350.87891 L 442.83008 350.88086 C 440.34812 354.48901 437.6785 358.03162 434.9082 361.54883 C 434.90731 361.54997 434.90715 361.5516 434.90625 361.55273 C 434.90522 361.55441 434.90337 361.55499 434.90234 361.55664 C 434.90051 361.55959 434.89883 361.56361 434.89648 361.56641 C 434.8881 361.57705 434.87948 361.58702 434.87109 361.59766 C 433.59758 363.21361 432.3998 364.84871 431.06641 366.44336 C 426.84847 371.48776 422.40744 376.45194 417.60352 381.25586 C 416.79098 382.07498 415.96376 382.88062 415.13477 383.68164 L 415.13281 383.68359 C 410.50423 388.31303 405.65881 392.6128 400.69922 396.7168 C 400.38855 396.97388 400.06441 397.20409 399.75 397.45312 C 399.74857 397.45426 399.74753 397.45589 399.74609 397.45703 L 399.74414 397.45898 C 399.74306 397.45987 399.74131 397.46006 399.74023 397.46094 C 397.53021 399.26775 395.23764 400.88983 392.9707 402.58984 C 392.96997 402.59039 392.96948 402.59125 392.96875 402.5918 C 392.96575 402.5938 392.96394 402.59566 392.96094 402.59766 C 390.4121 404.52365 387.87103 406.46325 385.24805 408.24219 C 384.44339 408.78793 383.62426 409.29443 382.81445 409.82227 C 382.8137 409.82276 382.81325 409.82373 382.8125 409.82422 C 382.8095 409.82622 382.80769 409.82808 382.80469 409.83008 C 382.80425 409.83037 382.80317 409.82979 382.80273 409.83008 C 379.86593 411.75976 376.87621 413.50941 373.86914 415.26367 C 373.86664 415.26513 373.86383 415.26612 373.86133 415.26758 C 373.85933 415.26858 373.85743 415.27011 373.85547 415.27148 C 373.85351 415.27286 373.85146 415.27389 373.84961 415.27539 C 372.12421 416.27707 370.42315 417.34469 368.67578 418.29297 C 366.79473 419.31384 364.93425 420.36447 363.03125 421.31641 C 362.26162 421.70142 361.51126 422.14703 360.74414 422.53906 C 360.73895 422.54157 360.73371 422.54437 360.72852 422.54688 C 360.64624 422.58664 360.56864 422.64006 360.48633 422.67969 C 360.48248 422.6817 360.47851 422.68366 360.47461 422.68555 L 360.47266 422.68555 C 360.46016 422.69155 360.44805 422.69908 360.43555 422.70508 C 358.50585 423.63351 356.50529 424.26605 354.55664 425.12305 C 353.52026 425.57881 352.47044 425.96185 351.43359 426.4082 C 347.80824 427.92394 344.22458 429.62581 340.54883 430.89062 C 340.5469 430.89129 340.54489 430.89192 340.54297 430.89258 C 340.5348 430.89571 340.52575 430.89944 340.51758 430.90234 C 340.49468 430.91034 340.47242 430.91778 340.44922 430.92578 C 340.38252 430.94868 340.31668 430.97134 340.25 430.99414 C 340.14961 431.02844 340.04964 431.06154 339.94922 431.0957 C 336.73354 432.17608 333.47617 432.96205 330.23438 433.85938 C 329.78377 433.9841 329.3358 434.12714 328.88477 434.24805 C 323.66978 435.64598 318.44251 436.75847 313.19141 437.63672 C 313.17709 437.63911 313.16275 437.64214 313.14844 437.64453 C 313.12304 437.64953 313.09767 437.6535 313.07227 437.6582 C 312.24324 437.81612 311.4129 437.94152 310.58398 438.0957 C 305.35475 438.88277 300.13749 439.36483 294.91797 439.61914 C 294.91404 439.61933 294.91018 439.6209 294.90625 439.62109 C 294.84119 439.62426 294.776 439.62973 294.71094 439.63281 C 294.47657 439.64671 294.24238 439.65989 294.00781 439.67773 C 286.41753 440.00196 278.85055 439.96774 271.38672 439.12305 L 271.00586 439.07422 C 255.1988 436.92396 239.77321 432.73445 225.07617 426.75586 C 180.985 408.82021 143.45674 374.78776 121.9043 331.44727 C 121.90417 331.44701 121.90247 331.44752 121.90234 331.44727 L 121.90234 331.44531 L 121.90234 331.44336 C 121.88434 331.40706 121.86566 331.37026 121.84766 331.33398 C 121.78787 331.21351 121.72911 331.09296 121.66992 330.97266 C 121.63754 330.90684 121.60465 330.84137 121.57227 330.77539 C 119.78763 327.13966 118.37271 323.4295 116.91406 319.72852 C 114.01966 312.73703 111.58291 305.67746 109.625 298.53711 C 109.53219 298.19371 109.41876 297.85343 109.32812 297.50977 C 107.79007 291.76435 106.58783 285.9993 105.6543 280.19922 C 105.65302 280.19131 105.64971 280.18369 105.64844 280.17578 C 105.49207 279.23008 105.31997 278.28555 105.18359 277.33594 C 105.18259 277.32894 105.18277 277.32165 105.18164 277.31445 C 105.17882 277.29429 105.17743 277.2741 105.17578 277.25391 C 104.27158 270.93842 103.74663 264.62457 103.55664 258.29492 C 103.55652 258.29104 103.55676 258.28709 103.55664 258.2832 C 103.55631 258.2721 103.55469 258.2611 103.55469 258.25 C 103.48029 256.73558 103.37714 255.22085 103.37305 253.70312 C 103.37303 253.69612 103.375 253.69009 103.375 253.68359 C 103.37495 253.66595 103.37721 253.64842 103.37891 253.63086 C 103.36553 247.86056 103.73655 242.11962 104.31641 236.38281 L 104.31641 236.38086 C 104.31636 236.37988 104.31642 236.37596 104.31641 236.375 C 104.31664 236.37305 104.31627 236.37109 104.31641 236.36914 C 104.31749 236.35417 104.31676 236.33917 104.31836 236.32422 C 104.4794 234.73627 104.37165 233.13059 104.57812 231.54688 L 104.57812 231.54492 C 104.64083 231.06363 104.769 230.59025 104.83594 230.10938 C 104.83794 230.09438 104.84175 230.07945 104.84375 230.06445 C 104.84666 230.04158 104.85078 230.01877 104.85547 229.99609 C 105.48703 225.48169 106.53801 221.02497 107.53906 216.55859 C 107.54024 216.55335 107.54179 216.54821 107.54297 216.54297 C 107.90711 214.84496 108.17945 213.13372 108.61328 211.44531 C 108.61528 211.43831 108.61714 211.43228 108.61914 211.42578 C 108.62129 211.41724 108.62385 211.40872 108.62695 211.40039 C 110.07749 205.76125 111.93766 200.20786 113.98242 194.6875 C 113.98386 194.68361 113.98489 194.67967 113.98633 194.67578 C 114.23106 193.94898 114.45463 193.21804 114.73242 192.49805 C 114.73525 192.49168 114.73751 192.48501 114.74023 192.47852 C 114.74128 192.47581 114.7431 192.47341 114.74414 192.4707 L 114.74414 192.46875 C 114.74436 192.46819 114.74393 192.46735 114.74414 192.4668 C 115.79259 189.75089 116.93777 187.07016 118.13086 184.39062 C 120.31037 179.35274 122.63751 174.3545 125.38281 169.47852 C 128.24486 164.18523 131.54185 158.97796 135.125 153.84961 C 135.34478 153.53504 135.50026 153.20444 135.72266 152.89062 C 136.40782 151.92383 137.2258 151.00034 137.93555 150.04102 C 138.79969 148.87309 139.72079 147.74015 140.62109 146.58398 C 142.10556 144.67707 143.48382 142.73371 145.05273 140.85742 C 145.11768 140.77976 145.18243 140.70243 145.24805 140.625 C 148.6463 136.61508 152.26416 132.68993 156.08789 128.86719 C 160.83293 124.12474 165.81982 119.61093 171.02539 115.34375 C 171.6393 114.84051 172.3605 114.46901 172.98047 113.97266 C 180.43046 108.00751 188.20342 102.41933 196.46484 97.5 L 197.00195 96.970703 L 199.00195 95.828125 C 199.08811 95.779065 199.17358 95.730547 199.25977 95.681641 C 207.97582 90.735397 216.84287 86.826081 225.76562 83.435547 C 228.58632 82.361278 231.38927 81.114667 234.22461 80.197266 C 236.60205 79.428044 238.99369 78.850033 241.38086 78.205078 C 242.6819 77.844678 243.9762 77.449323 245.2793 77.121094 C 245.37459 77.096418 245.46906 77.064871 245.56445 77.041016 L 245.56641 77.041016 C 245.56941 77.040367 245.57122 77.039762 245.57422 77.039062 C 246.43515 76.823836 247.2907 76.52348 248.15234 76.322266 C 251.89188 75.448986 255.6467 74.990878 259.39844 74.439453 C 262.17118 73.988605 264.93359 73.354181 267.70898 73.046875 C 267.83742 73.031226 267.96525 72.996345 268.09375 72.982422 L 268.0957 72.982422 L 268.09766 72.982422 C 275.08878 72.224715 282.08156 71.863012 289.05859 72.005859 z M 286.05859 150.46094 C 268.74669 150.09394 251.45894 154.62001 235.33398 164.16406 L 229.70117 167.49414 C 223.95583 171.37262 218.27636 176.07971 213.01953 181.33984 C 205.45502 188.90106 199.05163 197.30943 194.49219 205.66016 L 194.24805 206.10547 C 183.04466 225.28615 179.17095 246.17096 182.38086 266.75977 L 182.38281 266.75977 C 184.45262 280.03391 189.46569 293.18638 197.35742 305.67969 L 336.93164 166.11328 C 320.70717 156.08813 303.37049 150.82794 286.05859 150.46094 z " />
  <!--! Font Awesome Free 7.1.0 by @fontawesome - https://fontawesome.com License - https://fontawesome.com/license/free (Icons: CC BY 4.0, Fonts: SIL OFL 1.1, Code: MIT License) Copyright 2025 Fonticons, Inc. -->
</svg>
