<?xml version="1.0" encoding="UTF-8" standalone="no"?>
<svg
   viewBox="0 0 576 512"
   version="1.1"
   id="svg1"
   sodipodi:docname="obtims-ticket.svg"
   inkscape:version="1.4.2 (ebf0e940, 2025-05-08)"
   xmlns:inkscape="http://www.inkscape.org/namespaces/inkscape"
   xmlns:sodipodi="http://sodipodi.sourceforge.net/DTD/sodipodi-0.dtd"
   xmlns="http://www.w3.org/2000/svg"
   xmlns:svg="http://www.w3.org/2000/svg">
  <defs
     id="defs1" />
  <sodipodi:namedview
     id="namedview1"
     pagecolor="#ffffff"
     bordercolor="#000000"
     borderopacity="0.25"
     inkscape:showpageshadow="2"
     inkscape:pageopacity="0.0"
     inkscape:pagecheckerboard="0"
     inkscape:deskcolor="#d1d1d1"
     inkscape:zoom="1.4444444"
     inkscape:cx="288.00001"
     inkscape:cy="256.15385"
     inkscape:window-width="1920"
     inkscape:window-height="931"
     inkscape:window-x="1920"
     inkscape:window-y="31"
     inkscape:window-maximized="1"
     inkscape:current-layer="svg1" />
  <!--! Font Awesome Free 7.1.0 by @fontawesome - https://fontawesome.com License - https://fontawesome.com/license/free (Icons: CC BY 4.0, Fonts: SIL OFL 1.1, Code: MIT License) Copyright 2025 Fonticons, Inc. -->
  <path
     id="path6"
     style="fill:currentColor"
     d="M 64 64 C 28.7 64 0 92.7 0 128 L 0 192 C 0 200.8 7.3992186 207.69961 15.699219 210.59961 C 34.499219 217.09961 48 235 48 256 C 48 277 34.499219 294.90039 15.699219 301.40039 C 7.3992186 304.30039 0 311.2 0 320 L 0 384 C 0 419.3 28.7 448 64 448 L 512 448 C 547.3 448 576 419.3 576 384 L 576 320 C 576 311.2 568.60078 304.30039 560.30078 301.40039 C 541.50078 294.90039 528 277 528 256 C 528 235 541.50078 217.09961 560.30078 210.59961 C 568.60078 207.69961 576 200.8 576 192 L 576 128 C 576 92.7 547.3 64 512 64 L 64 64 z M 232.5332 98.923828 L 343.41016 98.923828 C 374.01693 98.923828 398.84961 123.75652 398.84961 154.36328 L 398.84961 302.19922 C 398.84961 325.35641 384.64254 345.22242 364.48828 353.48047 L 395.61523 390.26562 C 400.58161 396.09823 399.83066 404.87652 393.99805 409.78516 C 388.16544 414.69379 379.38911 414.00058 374.48047 408.16797 L 331.74609 357.63867 L 244.37109 357.63867 L 201.63867 408.16797 C 196.6723 414.00058 187.95174 414.75154 182.11914 409.78516 C 176.28653 404.81878 175.53557 396.09823 180.50195 390.26562 L 211.62891 353.48047 C 191.3014 345.22242 177.0957 325.35641 177.0957 302.19922 L 177.0957 154.36328 C 177.0957 123.75652 201.92644 98.923828 232.5332 98.923828 z M 232.5332 154.36328 C 222.3117 154.36328 214.05469 162.62225 214.05469 172.84375 L 214.05469 228.28125 C 214.05469 238.50275 222.3117 246.76172 232.5332 246.76172 L 343.41016 246.76172 C 353.63167 246.76172 361.89062 238.50275 361.89062 228.28125 L 361.89062 172.84375 C 361.89062 162.62225 353.63167 154.36328 343.41016 154.36328 L 232.5332 154.36328 z M 287.97266 283.7207 C 277.75116 283.7207 269.49219 291.97771 269.49219 302.19922 C 269.49219 312.42072 277.75116 320.67969 287.97266 320.67969 C 298.19417 320.67969 306.45117 312.42072 306.45117 302.19922 C 306.45117 291.97771 298.19417 283.7207 287.97266 283.7207 z " />
</svg>
