<?xml version="1.0" encoding="UTF-8" standalone="no"?>
<!-- Created with Inkscape (http://www.inkscape.org/) -->

<svg
   width="16"
   height="16"
   viewBox="0 0 4.2333334 4.2333332"
   version="1.1"
   id="svg1"
   xml:space="preserve"
   inkscape:version="1.4.2 (ebf0e940, 2025-05-08)"
   sodipodi:docname="paper-ticket.svg"
   xmlns:inkscape="http://www.inkscape.org/namespaces/inkscape"
   xmlns:sodipodi="http://sodipodi.sourceforge.net/DTD/sodipodi-0.dtd"
   xmlns="http://www.w3.org/2000/svg"
   xmlns:svg="http://www.w3.org/2000/svg"><sodipodi:namedview
     id="namedview1"
     pagecolor="#ffffff"
     bordercolor="#000000"
     borderopacity="0.25"
     inkscape:showpageshadow="2"
     inkscape:pageopacity="0.0"
     inkscape:pagecheckerboard="0"
     inkscape:deskcolor="#d1d1d1"
     inkscape:document-units="px"
     showguides="true"
     inkscape:zoom="21.423077"
     inkscape:cx="20.491921"
     inkscape:cy="14.003591"
     inkscape:window-width="2560"
     inkscape:window-height="1291"
     inkscape:window-x="0"
     inkscape:window-y="31"
     inkscape:window-maximized="1"
     inkscape:current-layer="layer1"><sodipodi:guide
       position="0.52916667,2.418457"
       orientation="1,0"
       id="guide2"
       inkscape:locked="false" /><sodipodi:guide
       position="3.7041667,2.5755533"
       orientation="1,0"
       id="guide3"
       inkscape:locked="false" /></sodipodi:namedview><defs
     id="defs1" /><g
     inkscape:label="Layer 1"
     inkscape:groupmode="layer"
     id="layer1"
     transform="translate(-119.36275,-138.00487)"><path
       id="path1"
       style="display:inline;fill:#000000;stroke-width:0.0367251"
       d="M 119.81233 138.66995 L 119.81233 138.67201 L 119.81182 138.67201 C 119.81124 138.67208 119.80973 138.67235 119.80923 138.67253 L 119.80872 138.67305 L 119.8082 138.67356 C 119.808 138.67372 119.80683 138.67442 119.80665 138.6746 C 119.80391 138.67778 119.80257 138.68364 119.79993 138.687 L 119.79942 138.68752 C 119.79923 138.68769 119.79807 138.68839 119.79787 138.68855 L 119.79735 138.68907 C 119.79711 138.68918 119.79606 138.6895 119.7958 138.68958 C 119.79552 138.68964 119.79506 138.68956 119.79476 138.68958 L 119.7927 138.67201 L 119.79115 138.67201 L 119.7927 138.69165 C 119.60706 138.70875 119.45794 138.85208 119.44543 139.03892 L 119.36895 139.03892 L 119.36895 139.65645 L 119.43355 139.65645 L 119.43355 139.94325 L 119.36895 139.94325 L 119.36895 140.5334 L 119.43355 140.5334 L 119.43355 140.57009 L 119.36895 140.57009 L 119.36895 141.16023 L 119.49814 141.16023 C 119.54524 141.31861 119.64171 141.47649 119.8144 141.47649 L 123.18371 141.47649 C 123.37359 141.47649 123.5066 141.31139 123.53097 141.12509 L 123.60745 141.12509 L 123.60745 140.55459 L 123.55629 140.55459 L 123.55629 140.53495 L 123.60745 140.53495 L 123.60745 139.95721 L 123.56456 139.95721 L 123.56456 139.72466 L 123.60745 139.72466 L 123.60745 139.14072 L 123.56611 139.14072 L 123.56611 139.05649 L 123.56611 139.05442 C 123.57011 138.84122 123.39319 138.66995 123.18371 138.66995 L 119.8144 138.66995 L 119.81233 138.66995 z M 119.81233 138.93556 L 119.81285 138.93556 L 119.8144 138.93556 L 123.18371 138.93556 C 123.25171 138.93556 123.30419 138.98677 123.30256 139.0508 L 123.30256 139.05287 L 123.30256 139.40633 L 123.34184 139.40633 L 123.34184 139.46111 L 123.29894 139.46111 L 123.29894 139.7381 L 123.26587 139.7381 L 123.26587 140.22282 L 123.34184 140.22282 L 123.34184 140.26985 L 123.29326 140.26985 L 123.29326 140.8202 L 123.34184 140.8202 L 123.34184 140.86154 L 123.29326 140.86154 L 123.30308 141.0977 C 123.30508 141.16 123.25155 141.21088 123.18371 141.21088 L 121.71248 141.21088 C 122.15111 141.12966 122.48246 140.75854 122.48246 140.31274 C 122.48248 139.9961 122.31574 139.71681 122.06181 139.55258 L 123.06847 139.55258 L 123.06847 139.29471 L 119.89243 139.29471 L 119.89243 139.55258 L 121.00244 139.55258 C 120.89965 139.61908 120.81154 139.7047 120.74251 139.80373 L 121.00554 139.84817 L 121.07789 140.37889 L 121.07841 140.37889 L 121.07892 140.37889 L 121.07892 140.37837 C 121.08065 140.37817 121.08409 140.37889 121.08409 140.37889 L 121.16367 139.87452 L 121.42722 139.91845 L 121.42722 140.737 L 121.26083 140.76491 L 121.26083 140.41351 C 121.26083 140.41351 121.26689 140.26165 121.26289 140.23574 C 121.26289 140.23574 121.25814 140.23593 121.25617 140.23574 L 121.25566 140.23574 L 121.15644 140.78299 L 120.99107 140.8109 L 120.86963 140.22127 L 120.86292 140.22076 C 120.86092 140.24206 120.8717 140.42746 120.8717 140.42746 L 120.8717 140.83105 L 120.76318 140.84966 C 120.90201 141.03381 121.11001 141.16592 121.35074 141.21088 L 119.81492 141.21088 C 119.74702 141.21088 119.69555 141.15996 119.69555 141.09202 L 119.69555 140.89668 L 119.63508 140.89668 L 119.63508 140.83415 L 119.69761 140.83415 L 119.69761 140.26985 L 119.63508 140.26985 L 119.63508 140.20732 L 119.73482 140.20732 L 119.73482 139.69159 L 119.69761 139.69159 L 119.69761 139.39083 L 119.63508 139.39083 L 119.63508 139.30453 L 119.69555 139.30453 L 119.69555 139.05494 C 119.69555 138.98771 119.74551 138.93664 119.81233 138.93556 z M 121.47787 139.92723 L 121.86492 139.99183 L 121.86492 140.16546 L 121.76209 140.15771 L 121.76209 140.68068 L 121.60861 140.70651 L 121.60809 140.14479 L 121.47787 140.13342 L 121.47787 139.92723 z M 121.95484 140.00837 L 122.06491 140.02697 L 122.15741 140.61401 L 122.06646 140.629 L 122.05613 140.55303 L 121.96724 140.5644 L 121.95587 140.64812 L 121.83857 140.66827 L 121.95484 140.00837 z M 119.98803 140.09156 L 119.98803 140.78144 L 120.69342 140.78144 L 120.69342 140.09156 L 119.98803 140.09156 z M 122.0091 140.22282 L 121.9843 140.42694 L 122.03959 140.42384 L 122.01478 140.22282 L 122.0091 140.22282 z M 120.2459 140.34943 L 120.43555 140.34943 L 120.43555 140.52358 L 120.2459 140.52358 L 120.2459 140.34943 z " /></g></svg>
