<?xml version="1.0" encoding="UTF-8" standalone="no"?>
<svg
   viewBox="0 0 512 512"
   version="1.1"
   id="svg1"
   sodipodi:docname="refunds.svg"
   inkscape:version="1.4.2 (ebf0e940, 2025-05-08)"
   xmlns:inkscape="http://www.inkscape.org/namespaces/inkscape"
   xmlns:sodipodi="http://sodipodi.sourceforge.net/DTD/sodipodi-0.dtd"
   xmlns="http://www.w3.org/2000/svg"
   xmlns:svg="http://www.w3.org/2000/svg">
  <defs
     id="defs1" />
  <sodipodi:namedview
     id="namedview1"
     pagecolor="#ffffff"
     bordercolor="#000000"
     borderopacity="0.25"
     inkscape:showpageshadow="2"
     inkscape:pageopacity="0.0"
     inkscape:pagecheckerboard="0"
     inkscape:deskcolor="#d1d1d1"
     showgrid="false"
     inkscape:zoom="1.6484375"
     inkscape:cx="256"
     inkscape:cy="256"
     inkscape:window-width="1920"
     inkscape:window-height="1021"
     inkscape:window-x="1920"
     inkscape:window-y="31"
     inkscape:window-maximized="1"
     inkscape:current-layer="svg1" />
  <!--! Font Awesome Free 7.1.0 by @fontawesome - https://fontawesome.com License - https://fontawesome.com/license/free (Icons: CC BY 4.0, Fonts: SIL OFL 1.1, Code: MIT License) Copyright 2025 Fonticons, Inc. -->
  <path
     id="path2"
     style="fill:currentColor"
     d="m 256,112 c -13.3,0 -24,10.7 -24,24 v 12 h -1.80078 C 193.59922,148 164,177.69922 164,214.19922 c 0,33.4 24.9,61.60117 58,65.70117 L 283,287.5 c 5.1,0.6 9,4.99922 9,10.19922 0,5.7 -4.59922,10.20117 -10.19922,10.20117 L 208,308 c -15.5,0 -28,12.5 -28,28 0,15.5 12.5,28 28,28 h 24 v 12 c 0,13.3 10.7,24 24,24 13.3,0 24,-10.7 24,-24 v -12 h 1.80078 C 318.40078,364 348,334.30078 348,297.80078 c 0,-33.4 -24.9,-61.60117 -58,-65.70117 L 229,224.5 c -5.1,-0.6 -9,-4.99922 -9,-10.19922 0,-5.7 4.59922,-10.20117 10.19922,-10.20117 L 296,204 c 15.5,0 28,-12.5 28,-28 0,-15.5 -12.5,-28 -28,-28 h -16 v -12 c 0,-13.3 -10.7,-24 -24,-24 z M 32,0 C 14.3,0 0,14.3 0,32 v 128 c 0,17.7 14.3,32 32,32 h 98 c 17.7,0 32,-14.3 32,-32 0,-17.7 -14.3,-32 -32,-32 H 112.90039 C 148.10039,88.7 199.2,64 256,64 c 106,0 192,85.90039 192,191.90039 0,106 -86,192 -192,192 -65.2,0 -122.79961,-32.50078 -157.599609,-82.30078 -10.2,-14.5 -30.09961,-18.10039 -44.59961,-7.90039 -14.5,10.2 -18.00039,30.10156 -7.90039,44.60156 C 92.100391,468.60078 169,512 256,512 397.4,512 512,397.4 512,256 512,114.6 397.4,0 256,0 179.5,0 110.9,33.599219 64,86.699219 V 32 C 64,14.3 49.7,0 32,0 Z"
     sodipodi:nodetypes="sscssccsccsscssscssccsccsscssssssssscssscscssscss" />
</svg>
