<?xml version="1.0" encoding="UTF-8" standalone="no"?>
<svg
   viewBox="0 0 576 512"
   version="1.1"
   id="svg1"
   sodipodi:docname="ticket-services-alt.svg"
   inkscape:version="1.4.2 (ebf0e940, 2025-05-08)"
   xmlns:inkscape="http://www.inkscape.org/namespaces/inkscape"
   xmlns:sodipodi="http://sodipodi.sourceforge.net/DTD/sodipodi-0.dtd"
   xmlns="http://www.w3.org/2000/svg"
   xmlns:svg="http://www.w3.org/2000/svg">
  <defs
     id="defs1">
    <inkscape:path-effect
       effect="simplify"
       id="path-effect2"
       is_visible="true"
       lpeversion="1.3"
       threshold="17.241379"
       steps="1"
       smooth_angles="360"
       helper_size="0"
       simplify_individual_paths="false"
       simplify_just_coalesce="false" />
  </defs>
  <sodipodi:namedview
     id="namedview1"
     pagecolor="#ffffff"
     bordercolor="#000000"
     borderopacity="0.25"
     inkscape:showpageshadow="2"
     inkscape:pageopacity="0.0"
     inkscape:pagecheckerboard="0"
     inkscape:deskcolor="#d1d1d1"
     showgrid="false"
     inkscape:zoom="1.4142136"
     inkscape:cx="289.56022"
     inkscape:cy="255.26554"
     inkscape:window-width="2560"
     inkscape:window-height="1291"
     inkscape:window-x="1919"
     inkscape:window-y="31"
     inkscape:window-maximized="0"
     inkscape:current-layer="svg1" />
  <!--! Font Awesome Free 7.1.0 by @fontawesome - https://fontawesome.com License - https://fontawesome.com/license/free (Icons: CC BY 4.0, Fonts: SIL OFL 1.1, Code: MIT License) Copyright 2025 Fonticons, Inc. -->
  <path
     id="path17"
     style="display:inline;stroke-width:0.667265"
     d="M 138.5332,0 C 114.97874,0 95.828125,19.150619 95.828125,42.705078 v 1.0625 h -12 v 47.449219 h 12 v 26.310543 h -12 v 53.58203 h 12 v 3.9004 h -12 v 34.85156 h 12 v 3.66406 c 0,23.55445 19.150615,42.70508 42.705075,42.70508 h 298.9336 c 23.55446,0 42.70507,-19.15063 42.70507,-42.70508 v -3.19336 h 11.36133 v -36.32617 h -11.36133 v -2.57813 H 491.5332 V 118.58594 H 480.17187 V 97.412109 H 491.5332 V 42.705078 H 480.17187 C 480.17187,19.150619 461.02126,0 437.4668,0 Z m 16.19336,46.619141 h 267.54688 a 21.133637,22.677151 0 0 1 21.13086,22.677734 21.133637,22.677151 0 0 1 -21.13086,22.675781 h -66.52539 c 14.1472,15.257714 22.80269,35.733684 22.80078,58.246094 0,47.16973 -38.01627,85.41406 -84.92774,85.41406 v -0.004 c -28.2891,0 -53.34198,-13.91874 -68.78125,-35.31836 l 9.70703,-1.70703 v -37.71094 c 0,0 -1.02637,-17.2752 -0.79492,-19.26758 l 0.6543,0.0469 10.85352,55.04883 14.76953,-2.60547 8.86718,-51.10351 h 0.002 v 0.002 0.002 h 0.002 l 0.002,0.002 c 0.0639,0.0451 0.65235,0.0312 0.65235,0.0312 0.32535,2.41836 -0.22461,16.5625 -0.22461,16.5625 v 32.83594 l 14.86523,-2.60157 v -76.41797 l -23.55273,-4.12304 -7.10352,47.08008 c 0,0 -0.38412,-0.0412 -0.46094,0.0156 -0.001,9.7e-4 -0.003,0.003 -0.004,0.004 l -0.002,0.002 c 0,0 0,0.002 0,0.002 0,0 -0.002,0 -0.002,0 0,0 0,0.002 0,0.002 v 0.002 l -0.002,0.002 -6.47656,-49.57422 -23.53516,-4.14843 c 2.53485,-3.799783 5.36335,-7.384336 8.45508,-10.718754 H 154.72656 A 21.133637,22.677151 0 0 1 133.59375,69.296875 21.133637,22.677151 0 0 1 154.72656,46.619141 Z m 134.05078,67.609379 v 19.23242 l 11.65235,1.0332 0.0332,52.47266 13.71289,-2.42774 v -48.83594 l 9.19922,0.78321 v -16.20899 z m 42.60157,7.56054 -10.37696,61.58203 10.48047,-1.85351 0.99414,-7.83203 7.92578,-1.03125 0.94922,7.11914 8.13672,-1.41211 L 341.23047,123.5 Z m -162.49414,9.05664 h 29.92578 c 9.98516,0 18.02539,8.03828 18.02539,18.02344 v 26.99609 c 0,9.98517 -8.04023,18.02344 -18.02539,18.02344 h -29.92578 c -9.98517,0 -18.02344,-8.03827 -18.02344,-18.02344 v -26.99609 c 0,-9.98516 8.03827,-18.02344 18.02344,-18.02344 z m 167.4121,10.97461 h 0.47461 l 2.18164,18.80274 -4.86328,0.28515 z M 199.69922,304 c -33.9,0 -66.5,13.5 -90.5,37.5 L 66.699219,384 H 32 C 14.3,384 0,398.3 0,416 v 64 c 0,17.7 14.3,32 32,32 h 320.40039 c 29.1,0 57.29922,-9.3 80.69922,-26.5 l 126.59961,-93.30078 c 17.8,-13.1 21.6,-38.09844 8.5,-55.89844 -13.1,-17.8 -38.09844,-21.6 -55.89844,-8.5 L 392.59961,416 H 280 c -13.3,0 -24,-10.7 -24,-24 0,-13.3 10.7,-24 24,-24 h 72 c 17.7,0 32,-14.3 32,-32 0,-17.7 -14.3,-32 -32,-32 z" />
</svg>
