<?xml version="1.0" encoding="UTF-8" standalone="no"?>
<svg
   viewBox="0 0 576 512"
   version="1.1"
   id="svg1"
   sodipodi:docname="ticket-services.svg"
   inkscape:version="1.4.2 (ebf0e940, 2025-05-08)"
   xmlns:inkscape="http://www.inkscape.org/namespaces/inkscape"
   xmlns:sodipodi="http://sodipodi.sourceforge.net/DTD/sodipodi-0.dtd"
   xmlns="http://www.w3.org/2000/svg"
   xmlns:svg="http://www.w3.org/2000/svg">
  <defs
     id="defs1" />
  <sodipodi:namedview
     id="namedview1"
     pagecolor="#ffffff"
     bordercolor="#000000"
     borderopacity="0.25"
     inkscape:showpageshadow="2"
     inkscape:pageopacity="0.0"
     inkscape:pagecheckerboard="0"
     inkscape:deskcolor="#d1d1d1"
     showgrid="false"
     inkscape:zoom="2.1757812"
     inkscape:cx="287.94255"
     inkscape:cy="72.157989"
     inkscape:window-width="2560"
     inkscape:window-height="1291"
     inkscape:window-x="1920"
     inkscape:window-y="31"
     inkscape:window-maximized="1"
     inkscape:current-layer="svg1" />
  <!--! Font Awesome Free 7.1.0 by @fontawesome - https://fontawesome.com License - https://fontawesome.com/license/free (Icons: CC BY 4.0, Fonts: SIL OFL 1.1, Code: MIT License) Copyright 2025 Fonticons, Inc. -->
  <path
     id="path1-3"
     style="display:inline;stroke-width:0.667265"
     d="M 95.82765,42.704967 C 95.82765,19.150508 114.97815,0 138.53261,0 h 298.93477 c 23.55446,0 42.70497,19.150508 42.70497,42.704967 v 42.704965 c 0,5.871933 -4.93776,10.476062 -10.47606,12.411131 -12.54459,4.337227 -21.55266,16.281267 -21.55266,30.293837 0,14.01257 9.00807,25.95661 21.55266,30.29384 5.5383,1.93507 10.47606,6.5392 10.47606,12.41113 v 42.70497 c 0,23.55445 -19.15051,42.70496 -42.70497,42.70496 H 138.53261 c -23.55446,0 -42.70496,-19.15051 -42.70496,-42.70496 v -42.70497 c 0,-5.87193 4.93776,-10.47606 10.47606,-12.41113 12.54458,-4.33723 21.55266,-16.28127 21.55266,-30.29384 0,-14.01257 -9.00808,-25.95661 -21.55266,-30.293837 -5.5383,-1.935069 -10.47606,-6.539198 -10.47606,-12.411131 z M 66.7,384 109.2,341.5 c 24,-24 56.6,-37.5 90.5,-37.5 H 352 c 17.7,0 32,14.3 32,32 0,17.7 -14.3,32 -32,32 h -72 c -13.3,0 -24,10.7 -24,24 0,13.3 10.7,24 24,24 h 112.6 l 119.7,-88.2 c 17.8,-13.1 42.8,-9.3 55.9,8.5 13.1,17.8 9.3,42.8 -8.5,55.9 L 433.1,485.5 C 409.7,502.7 381.5,512 352.4,512 H 32 C 14.3,512 0,497.7 0,480 v -64 c 0,-17.7 14.3,-32 32,-32 z" />
</svg>
