<svg xmlns="http://www.w3.org/2000/svg" xmlns:xlink="http://www.w3.org/1999/xlink" width="0" height="0" style="display:none;"><symbol viewBox="0 0 512 512" id="mta-i-credit-card-check">
  <defs id="defs1"></defs>
  <sodipodi:namedview id="namedview1" pagecolor="#ffffff" bordercolor="#000000" borderopacity="0.25" inkscape:showpageshadow="2" inkscape:pageopacity="0.0" inkscape:pagecheckerboard="0" inkscape:deskcolor="#d1d1d1" inkscape:zoom="1.625" inkscape:cx="255.69231" inkscape:cy="256" inkscape:window-width="1920" inkscape:window-height="1021" inkscape:window-x="1920" inkscape:window-y="31" inkscape:window-maximized="1" inkscape:current-layer="svg1"></sodipodi:namedview>
  <!--! Font Awesome Free 7.1.0 by @fontawesome - https://fontawesome.com License - https://fontawesome.com/license/free (Icons: CC BY 4.0, Fonts: SIL OFL 1.1, Code: MIT License) Copyright 2025 Fonticons, Inc. -->
  <path id="path1-8" style="fill:currentColor" d="m 367.69231,511.69231 c -79.52906,0 -143.99994,-64.471 -143.99994,-144 0,-79.529 64.47088,-144 143.99994,-144 79.52906,0 143.99994,64.471 143.99994,144 0,79.529 -64.47088,144 -143.99994,144 z m 57.4,-204.9 c -7.1,-5.2 -17.1,-3.6 -22.3,3.5 l -53,72.8 -26.7,-26.8 c -6.2,-6.2 -16.4,-6.2 -22.6,0 -6.2,6.2 -6.2,16.4 0,22.6 l 40,40 c 3.3,3.3 7.9,5 12.6,4.7 4.7,-0.3 8.9,-2.8 11.7,-6.6 l 64,-88 c 5.2,-7.1 3.6,-17.1 -3.5,-22.3 z M 64,64 C 28.7,64 0,92.7 0,128 v 32 H 512 V 128 C 512,92.7 483.3,64 448,64 Z M 274.03711,208 H 0 v 176 c 0,35.3 28.7,64 64,64 h 136.83398 c -11.81137,-24.33454 -18.44531,-51.59019 -18.44531,-80.30859 0,-67.75798 36.93365,-127.37321 91.64844,-159.69141 z M 88,336 h 48 c 13.3,0 24,10.7 24,24 0,13.3 -10.7,24 -24,24 H 88 c -13.3,0 -24,-10.7 -24,-24 0,-13.3 10.7,-24 24,-24 z"></path>
</symbol><symbol viewBox="0 0 576 512" id="mta-i-etix-ticket">
  <defs id="defs1"></defs>
  <sodipodi:namedview id="namedview1" pagecolor="#ffffff" bordercolor="#000000" borderopacity="0.25" inkscape:showpageshadow="2" inkscape:pageopacity="0.0" inkscape:pagecheckerboard="0" inkscape:deskcolor="#d1d1d1" inkscape:zoom="1.4444444" inkscape:cx="287.3077" inkscape:cy="256.15385" inkscape:window-width="1920" inkscape:window-height="931" inkscape:window-x="1920" inkscape:window-y="31" inkscape:window-maximized="1" inkscape:current-layer="svg1"></sodipodi:namedview>
  <!--! Font Awesome Free 7.1.0 by @fontawesome - https://fontawesome.com License - https://fontawesome.com/license/free (Icons: CC BY 4.0, Fonts: SIL OFL 1.1, Code: MIT License) Copyright 2025 Fonticons, Inc. -->
  <path d="M 64,64 C 28.7,64 0,92.7 0,128 v 64 c 0,8.8 7.3992188,15.69961 15.699219,18.59961 C 34.499219,217.09961 48,235 48,256 48,277 34.499219,294.90039 15.699219,301.40039 7.3992188,304.30039 0,311.2 0,320 v 64 c 0,35.3 28.7,64 64,64 h 448 c 35.3,0 64,-28.7 64,-64 v -64 c 0,-8.8 -7.39922,-15.69961 -15.69922,-18.59961 C 541.50078,294.90039 528,277 528,256 528,235 541.50078,217.09961 560.30078,210.59961 568.60078,207.69961 576,200.8 576,192 V 128 C 576,92.7 547.3,64 512,64 Z m 222.56641,36.96289 c 93.78987,0.62824 157.76719,73.82737 157.89843,148.04883 0.15903,89.93586 -66.5708,163.07258 -157.89843,162.01758 -86.23537,-0.99617 -155.03125,-69.41021 -155.03125,-155.03321 0,-85.623 70.18271,-155.60154 155.03125,-155.0332 z m 3.08007,43.1875 c -18.62128,-0.52369 -37.46492,4.2428 -55.41992,14.4668 l -1.21679,0.69531 -0.32422,0.32031 c -8.983,5.349 -17.23683,11.76427 -24.54883,19.07227 -7.682,7.68 -13.99097,16.03945 -18.66797,24.68945 -17.237,30.615 -18.00823,66.50366 -2.11523,98.47266 17.471,35.133 52.20743,60.20459 90.64843,65.43359 l 0.23242,0.0293 c 30.202,3.418 62.91354,-9.22103 87.39454,-33.70703 0.504,-0.487 1.00795,-0.97661 1.50195,-1.47461 20.827,-20.827 32.75031,-45.69163 33.57031,-70.01563 l 0.004,-0.48047 c -0.141,-11.201 -5.49708,-20.0359 -14.33008,-23.6289 -8.534,-3.471 -18.44405,-1.32058 -25.24805,5.48242 -4.405,4.406 -7.03822,10.4372 -7.44922,17.0332 -2.53,18.502 -13.12465,32.4625 -21.59765,40.9375 -18.459,18.46 -44.06919,23.53031 -65.74219,14.07031 l 97.24023,-97.24023 c 7.032,-7.034 10.42332,-14.54255 10.07032,-22.31055 -0.312,-6.917 -3.76452,-13.49959 -9.72852,-18.55859 -16.421,-15.732 -34.79361,-25.98445 -53.84961,-30.56445 l -1.91797,-0.44141 c -6.1165,-1.344 -12.29876,-2.10669 -18.50586,-2.28125 z m -2.49218,47.68359 c 10.52512,0.22313 21.06568,3.42063 30.92968,9.51563 l -84.85742,84.85156 c -12.24,-19.377 -13.09362,-41.35906 -1.89062,-60.53906 l 0.14843,-0.26953 c 2.772,-5.077 6.66468,-10.19011 11.26368,-14.78711 3.196,-3.198 6.65153,-6.05802 10.14453,-8.41602 l 3.42383,-2.02539 c 9.8035,-5.8025 20.31276,-8.5532 30.83789,-8.33008 z" style="fill:currentColor" id="path6"></path>
</symbol><symbol viewBox="0 0 576 512" id="mta-i-etix">
  <defs id="defs1"></defs>
  <sodipodi:namedview id="namedview1" pagecolor="#ffffff" bordercolor="#000000" borderopacity="0.25" inkscape:showpageshadow="2" inkscape:pageopacity="0.0" inkscape:pagecheckerboard="0" inkscape:deskcolor="#d1d1d1" inkscape:zoom="1.4444444" inkscape:cx="288" inkscape:cy="256.15385" inkscape:window-width="1920" inkscape:window-height="931" inkscape:window-x="1920" inkscape:window-y="31" inkscape:window-maximized="1" inkscape:current-layer="svg1"></sodipodi:namedview>
  <path id="path75" style="display:inline;fill:#1a1a1a;stroke-width:5.60778" d="M 288 0.70507812 A 255.29424 255.29424 0 0 0 32.705078 256 A 255.29424 255.29424 0 0 0 288 511.29492 A 255.29424 255.29424 0 0 0 543.29492 256 A 255.29424 255.29424 0 0 0 288 0.70507812 z M 289.05859 72.005859 C 289.42521 72.013674 289.79169 72.022896 290.1582 72.033203 C 300.36773 72.320327 310.53518 73.574523 320.5957 75.785156 L 323.75 76.509766 C 355.09362 84.043025 385.31274 100.90694 412.32227 126.7832 C 422.13196 135.10432 427.81103 145.93335 428.32422 157.31055 C 428.90484 170.08748 423.32806 182.43427 411.76172 194.00391 L 251.82422 353.94727 C 255.79051 355.67844 259.8595 357.00444 263.96094 358.14648 C 264.95267 358.4226 265.94555 358.68782 266.94336 358.92969 C 268.12523 359.21612 269.33022 359.32987 270.51953 359.56836 C 271.35812 359.70211 272.19141 359.87182 273.0293 360.01562 C 273.62707 360.10692 274.21836 360.24352 274.81641 360.33398 C 276.32444 360.57837 277.81232 360.98613 279.33008 361.13867 C 279.33199 361.13886 279.33403 361.13848 279.33594 361.13867 C 279.60017 361.16473 279.86648 361.15545 280.13086 361.17969 C 284.30128 361.56206 288.49158 361.63354 292.68164 361.44727 C 293.24104 361.4228 293.80019 361.41568 294.35938 361.38086 C 294.70047 361.35956 295.03852 361.27992 295.37891 361.24609 C 297.27852 361.10638 299.16446 360.75182 301.05859 360.49609 C 303.82352 360.12435 306.59089 359.79265 309.33203 359.17383 L 309.33398 359.17383 C 309.3352 359.17355 309.33668 359.1741 309.33789 359.17383 C 309.34049 359.17324 309.3431 359.17246 309.3457 359.17188 C 311.93207 358.587 314.47833 357.75183 317.03125 356.94922 C 318.95541 356.344 320.89777 355.84333 322.79688 355.11523 C 326.77157 353.59132 330.68893 351.81719 334.51953 349.75781 C 334.52083 349.75712 334.52214 349.75656 334.52344 349.75586 C 334.5255 349.75475 334.52723 349.75306 334.5293 349.75195 C 335.37705 349.29539 336.19581 348.754 337.03516 348.27148 C 337.03764 348.27006 337.04049 348.269 337.04297 348.26758 C 340.16377 346.47487 343.21994 344.49738 346.20703 342.3457 C 347.24695 341.59659 348.28887 340.85269 349.31055 340.06055 C 349.31308 340.05858 349.31583 340.05665 349.31836 340.05469 L 349.32422 340.04883 C 352.98173 337.21057 356.56342 334.1946 359.95312 330.80469 C 363.43726 327.31973 367.14016 323.2701 370.79883 318.68164 C 375.65213 312.59496 380.36459 305.47415 384.45312 297.54492 C 384.98779 296.50804 385.57422 295.54191 386.08398 294.47461 C 386.08424 294.47408 386.08373 294.47319 386.08398 294.47266 C 387.5533 291.39625 388.91442 288.19416 390.13281 284.86914 C 392.56959 278.21911 394.43817 271.0788 395.47852 263.4707 C 395.64752 260.7584 396.04571 258.104 396.66016 255.53516 C 397.2746 252.96631 398.10593 250.48226 399.14258 248.11133 C 399.6609 246.92586 400.23009 245.76836 400.84961 244.64258 C 402.08865 242.39102 403.52791 240.2669 405.1543 238.29492 C 405.96749 237.30893 406.82674 236.36096 407.73242 235.45508 C 408.99184 234.19584 410.3346 233.06709 411.71289 232.00391 C 411.71789 231.99991 411.72382 231.99589 411.72852 231.99219 C 411.73035 231.99078 411.73255 231.9897 411.73438 231.98828 C 411.84705 231.90058 411.94482 231.79084 412.05859 231.70508 C 412.14805 231.63767 412.24586 231.5836 412.33789 231.52148 C 412.34091 231.51925 412.34464 231.51786 412.34766 231.51562 C 412.35066 231.51362 412.35253 231.5116 412.35547 231.50977 C 413.74782 230.47928 415.18525 229.54278 416.67188 228.71289 C 416.6772 228.70992 416.68217 228.70609 416.6875 228.70312 C 416.7055 228.69092 416.72339 228.67837 416.74219 228.66797 C 416.79303 228.6398 416.84642 228.61863 416.89844 228.59375 C 416.90406 228.59066 416.91039 228.58902 416.91602 228.58594 C 416.92102 228.58294 416.92499 228.58113 416.92969 228.57812 C 419.84296 226.97967 422.90786 225.76358 426.05859 224.95703 C 426.07709 224.95229 426.09478 224.94416 426.11328 224.93945 C 426.20368 224.90965 426.29277 224.87426 426.38477 224.85156 C 426.55016 224.81086 426.72089 224.80588 426.88672 224.76758 C 426.88734 224.76743 426.88805 224.76772 426.88867 224.76758 C 428.57092 224.37641 430.26671 224.06347 431.97852 223.9043 C 431.99217 223.90303 432.00587 223.90165 432.01953 223.90039 C 432.04813 223.89739 432.07687 223.89558 432.10547 223.89258 C 432.11897 223.89158 432.13298 223.88967 432.14648 223.88867 C 432.18588 223.88567 432.22618 223.87995 432.26562 223.87695 C 432.44004 223.86206 432.61454 223.84951 432.78906 223.83789 C 433.77753 223.77209 434.7675 223.76214 435.75781 223.78516 C 440.1366 223.82154 444.51737 224.58987 448.70703 226.21484 C 448.89234 226.28583 449.07729 226.35858 449.26172 226.43359 C 450.16921 226.80273 451.05385 227.20731 451.91602 227.64258 C 451.91654 227.64284 451.91744 227.64231 451.91797 227.64258 C 454.5055 228.94905 456.8849 230.54961 459.03906 232.41016 C 459.03945 232.41049 459.04063 232.40982 459.04102 232.41016 C 459.75879 233.0302 460.45033 233.68047 461.11719 234.35742 C 464.45363 237.74407 467.1441 241.82701 469.10156 246.46484 C 470.66737 250.17474 471.76473 254.23785 472.34766 258.58203 C 472.34774 258.58268 472.34757 258.58334 472.34766 258.58398 C 472.63896 260.75549 472.80305 262.99655 472.83203 265.29883 L 472.82227 266.08984 C 472.81168 266.40382 472.79861 266.71911 472.78516 267.0332 C 472.16768 282.14906 468.89041 297.37701 463.26562 312.32422 C 463.17344 312.56918 463.14035 312.81965 463.04688 313.06445 L 463.04688 313.06641 C 463.03947 313.08581 463.03085 313.1056 463.02344 313.125 C 462.57447 314.28316 461.94263 315.415 461.4707 316.57031 C 460.18546 319.71665 458.74274 322.83777 457.24609 325.95117 C 456.80739 326.8742 456.4562 327.81086 455.99414 328.73047 L 455.99414 328.73242 L 455.99414 328.73438 L 455.99219 328.73633 C 455.98855 328.74357 455.98411 328.75057 455.98047 328.75781 C 453.2007 334.28819 450.04524 339.73658 446.61328 345.12109 C 445.38482 347.04847 444.1481 348.96423 442.83789 350.86914 C 442.83709 350.87031 442.83674 350.87188 442.83594 350.87305 L 442.83398 350.875 L 442.83203 350.87695 L 442.83203 350.87891 L 442.83008 350.88086 C 440.34812 354.48901 437.6785 358.03162 434.9082 361.54883 C 434.90731 361.54997 434.90715 361.5516 434.90625 361.55273 C 434.90522 361.55441 434.90337 361.55499 434.90234 361.55664 C 434.90051 361.55959 434.89883 361.56361 434.89648 361.56641 C 434.8881 361.57705 434.87948 361.58702 434.87109 361.59766 C 433.59758 363.21361 432.3998 364.84871 431.06641 366.44336 C 426.84847 371.48776 422.40744 376.45194 417.60352 381.25586 C 416.79098 382.07498 415.96376 382.88062 415.13477 383.68164 L 415.13281 383.68359 C 410.50423 388.31303 405.65881 392.6128 400.69922 396.7168 C 400.38855 396.97388 400.06441 397.20409 399.75 397.45312 C 399.74857 397.45426 399.74753 397.45589 399.74609 397.45703 L 399.74414 397.45898 C 399.74306 397.45987 399.74131 397.46006 399.74023 397.46094 C 397.53021 399.26775 395.23764 400.88983 392.9707 402.58984 C 392.96997 402.59039 392.96948 402.59125 392.96875 402.5918 C 392.96575 402.5938 392.96394 402.59566 392.96094 402.59766 C 390.4121 404.52365 387.87103 406.46325 385.24805 408.24219 C 384.44339 408.78793 383.62426 409.29443 382.81445 409.82227 C 382.8137 409.82276 382.81325 409.82373 382.8125 409.82422 C 382.8095 409.82622 382.80769 409.82808 382.80469 409.83008 C 382.80425 409.83037 382.80317 409.82979 382.80273 409.83008 C 379.86593 411.75976 376.87621 413.50941 373.86914 415.26367 C 373.86664 415.26513 373.86383 415.26612 373.86133 415.26758 C 373.85933 415.26858 373.85743 415.27011 373.85547 415.27148 C 373.85351 415.27286 373.85146 415.27389 373.84961 415.27539 C 372.12421 416.27707 370.42315 417.34469 368.67578 418.29297 C 366.79473 419.31384 364.93425 420.36447 363.03125 421.31641 C 362.26162 421.70142 361.51126 422.14703 360.74414 422.53906 C 360.73895 422.54157 360.73371 422.54437 360.72852 422.54688 C 360.64624 422.58664 360.56864 422.64006 360.48633 422.67969 C 360.48248 422.6817 360.47851 422.68366 360.47461 422.68555 L 360.47266 422.68555 C 360.46016 422.69155 360.44805 422.69908 360.43555 422.70508 C 358.50585 423.63351 356.50529 424.26605 354.55664 425.12305 C 353.52026 425.57881 352.47044 425.96185 351.43359 426.4082 C 347.80824 427.92394 344.22458 429.62581 340.54883 430.89062 C 340.5469 430.89129 340.54489 430.89192 340.54297 430.89258 C 340.5348 430.89571 340.52575 430.89944 340.51758 430.90234 C 340.49468 430.91034 340.47242 430.91778 340.44922 430.92578 C 340.38252 430.94868 340.31668 430.97134 340.25 430.99414 C 340.14961 431.02844 340.04964 431.06154 339.94922 431.0957 C 336.73354 432.17608 333.47617 432.96205 330.23438 433.85938 C 329.78377 433.9841 329.3358 434.12714 328.88477 434.24805 C 323.66978 435.64598 318.44251 436.75847 313.19141 437.63672 C 313.17709 437.63911 313.16275 437.64214 313.14844 437.64453 C 313.12304 437.64953 313.09767 437.6535 313.07227 437.6582 C 312.24324 437.81612 311.4129 437.94152 310.58398 438.0957 C 305.35475 438.88277 300.13749 439.36483 294.91797 439.61914 C 294.91404 439.61933 294.91018 439.6209 294.90625 439.62109 C 294.84119 439.62426 294.776 439.62973 294.71094 439.63281 C 294.47657 439.64671 294.24238 439.65989 294.00781 439.67773 C 286.41753 440.00196 278.85055 439.96774 271.38672 439.12305 L 271.00586 439.07422 C 255.1988 436.92396 239.77321 432.73445 225.07617 426.75586 C 180.985 408.82021 143.45674 374.78776 121.9043 331.44727 C 121.90417 331.44701 121.90247 331.44752 121.90234 331.44727 L 121.90234 331.44531 L 121.90234 331.44336 C 121.88434 331.40706 121.86566 331.37026 121.84766 331.33398 C 121.78787 331.21351 121.72911 331.09296 121.66992 330.97266 C 121.63754 330.90684 121.60465 330.84137 121.57227 330.77539 C 119.78763 327.13966 118.37271 323.4295 116.91406 319.72852 C 114.01966 312.73703 111.58291 305.67746 109.625 298.53711 C 109.53219 298.19371 109.41876 297.85343 109.32812 297.50977 C 107.79007 291.76435 106.58783 285.9993 105.6543 280.19922 C 105.65302 280.19131 105.64971 280.18369 105.64844 280.17578 C 105.49207 279.23008 105.31997 278.28555 105.18359 277.33594 C 105.18259 277.32894 105.18277 277.32165 105.18164 277.31445 C 105.17882 277.29429 105.17743 277.2741 105.17578 277.25391 C 104.27158 270.93842 103.74663 264.62457 103.55664 258.29492 C 103.55652 258.29104 103.55676 258.28709 103.55664 258.2832 C 103.55631 258.2721 103.55469 258.2611 103.55469 258.25 C 103.48029 256.73558 103.37714 255.22085 103.37305 253.70312 C 103.37303 253.69612 103.375 253.69009 103.375 253.68359 C 103.37495 253.66595 103.37721 253.64842 103.37891 253.63086 C 103.36553 247.86056 103.73655 242.11962 104.31641 236.38281 L 104.31641 236.38086 C 104.31636 236.37988 104.31642 236.37596 104.31641 236.375 C 104.31664 236.37305 104.31627 236.37109 104.31641 236.36914 C 104.31749 236.35417 104.31676 236.33917 104.31836 236.32422 C 104.4794 234.73627 104.37165 233.13059 104.57812 231.54688 L 104.57812 231.54492 C 104.64083 231.06363 104.769 230.59025 104.83594 230.10938 C 104.83794 230.09438 104.84175 230.07945 104.84375 230.06445 C 104.84666 230.04158 104.85078 230.01877 104.85547 229.99609 C 105.48703 225.48169 106.53801 221.02497 107.53906 216.55859 C 107.54024 216.55335 107.54179 216.54821 107.54297 216.54297 C 107.90711 214.84496 108.17945 213.13372 108.61328 211.44531 C 108.61528 211.43831 108.61714 211.43228 108.61914 211.42578 C 108.62129 211.41724 108.62385 211.40872 108.62695 211.40039 C 110.07749 205.76125 111.93766 200.20786 113.98242 194.6875 C 113.98386 194.68361 113.98489 194.67967 113.98633 194.67578 C 114.23106 193.94898 114.45463 193.21804 114.73242 192.49805 C 114.73525 192.49168 114.73751 192.48501 114.74023 192.47852 C 114.74128 192.47581 114.7431 192.47341 114.74414 192.4707 L 114.74414 192.46875 C 114.74436 192.46819 114.74393 192.46735 114.74414 192.4668 C 115.79259 189.75089 116.93777 187.07016 118.13086 184.39062 C 120.31037 179.35274 122.63751 174.3545 125.38281 169.47852 C 128.24486 164.18523 131.54185 158.97796 135.125 153.84961 C 135.34478 153.53504 135.50026 153.20444 135.72266 152.89062 C 136.40782 151.92383 137.2258 151.00034 137.93555 150.04102 C 138.79969 148.87309 139.72079 147.74015 140.62109 146.58398 C 142.10556 144.67707 143.48382 142.73371 145.05273 140.85742 C 145.11768 140.77976 145.18243 140.70243 145.24805 140.625 C 148.6463 136.61508 152.26416 132.68993 156.08789 128.86719 C 160.83293 124.12474 165.81982 119.61093 171.02539 115.34375 C 171.6393 114.84051 172.3605 114.46901 172.98047 113.97266 C 180.43046 108.00751 188.20342 102.41933 196.46484 97.5 L 197.00195 96.970703 L 199.00195 95.828125 C 199.08811 95.779065 199.17358 95.730547 199.25977 95.681641 C 207.97582 90.735397 216.84287 86.826081 225.76562 83.435547 C 228.58632 82.361278 231.38927 81.114667 234.22461 80.197266 C 236.60205 79.428044 238.99369 78.850033 241.38086 78.205078 C 242.6819 77.844678 243.9762 77.449323 245.2793 77.121094 C 245.37459 77.096418 245.46906 77.064871 245.56445 77.041016 L 245.56641 77.041016 C 245.56941 77.040367 245.57122 77.039762 245.57422 77.039062 C 246.43515 76.823836 247.2907 76.52348 248.15234 76.322266 C 251.89188 75.448986 255.6467 74.990878 259.39844 74.439453 C 262.17118 73.988605 264.93359 73.354181 267.70898 73.046875 C 267.83742 73.031226 267.96525 72.996345 268.09375 72.982422 L 268.0957 72.982422 L 268.09766 72.982422 C 275.08878 72.224715 282.08156 71.863012 289.05859 72.005859 z M 286.05859 150.46094 C 268.74669 150.09394 251.45894 154.62001 235.33398 164.16406 L 229.70117 167.49414 C 223.95583 171.37262 218.27636 176.07971 213.01953 181.33984 C 205.45502 188.90106 199.05163 197.30943 194.49219 205.66016 L 194.24805 206.10547 C 183.04466 225.28615 179.17095 246.17096 182.38086 266.75977 L 182.38281 266.75977 C 184.45262 280.03391 189.46569 293.18638 197.35742 305.67969 L 336.93164 166.11328 C 320.70717 156.08813 303.37049 150.82794 286.05859 150.46094 z "></path>
  <!--! Font Awesome Free 7.1.0 by @fontawesome - https://fontawesome.com License - https://fontawesome.com/license/free (Icons: CC BY 4.0, Fonts: SIL OFL 1.1, Code: MIT License) Copyright 2025 Fonticons, Inc. -->
</symbol><symbol id="mta-i-farego-alt"></symbol><symbol id="mta-i-farego"></symbol><symbol viewBox="0 0 576 512" id="mta-i-obtims-ticket">
  <defs id="defs1"></defs>
  <sodipodi:namedview id="namedview1" pagecolor="#ffffff" bordercolor="#000000" borderopacity="0.25" inkscape:showpageshadow="2" inkscape:pageopacity="0.0" inkscape:pagecheckerboard="0" inkscape:deskcolor="#d1d1d1" inkscape:zoom="1.4444444" inkscape:cx="288.00001" inkscape:cy="256.15385" inkscape:window-width="1920" inkscape:window-height="931" inkscape:window-x="1920" inkscape:window-y="31" inkscape:window-maximized="1" inkscape:current-layer="svg1"></sodipodi:namedview>
  <!--! Font Awesome Free 7.1.0 by @fontawesome - https://fontawesome.com License - https://fontawesome.com/license/free (Icons: CC BY 4.0, Fonts: SIL OFL 1.1, Code: MIT License) Copyright 2025 Fonticons, Inc. -->
  <path id="path6" style="fill:currentColor" d="M 64 64 C 28.7 64 0 92.7 0 128 L 0 192 C 0 200.8 7.3992186 207.69961 15.699219 210.59961 C 34.499219 217.09961 48 235 48 256 C 48 277 34.499219 294.90039 15.699219 301.40039 C 7.3992186 304.30039 0 311.2 0 320 L 0 384 C 0 419.3 28.7 448 64 448 L 512 448 C 547.3 448 576 419.3 576 384 L 576 320 C 576 311.2 568.60078 304.30039 560.30078 301.40039 C 541.50078 294.90039 528 277 528 256 C 528 235 541.50078 217.09961 560.30078 210.59961 C 568.60078 207.69961 576 200.8 576 192 L 576 128 C 576 92.7 547.3 64 512 64 L 64 64 z M 232.5332 98.923828 L 343.41016 98.923828 C 374.01693 98.923828 398.84961 123.75652 398.84961 154.36328 L 398.84961 302.19922 C 398.84961 325.35641 384.64254 345.22242 364.48828 353.48047 L 395.61523 390.26562 C 400.58161 396.09823 399.83066 404.87652 393.99805 409.78516 C 388.16544 414.69379 379.38911 414.00058 374.48047 408.16797 L 331.74609 357.63867 L 244.37109 357.63867 L 201.63867 408.16797 C 196.6723 414.00058 187.95174 414.75154 182.11914 409.78516 C 176.28653 404.81878 175.53557 396.09823 180.50195 390.26562 L 211.62891 353.48047 C 191.3014 345.22242 177.0957 325.35641 177.0957 302.19922 L 177.0957 154.36328 C 177.0957 123.75652 201.92644 98.923828 232.5332 98.923828 z M 232.5332 154.36328 C 222.3117 154.36328 214.05469 162.62225 214.05469 172.84375 L 214.05469 228.28125 C 214.05469 238.50275 222.3117 246.76172 232.5332 246.76172 L 343.41016 246.76172 C 353.63167 246.76172 361.89062 238.50275 361.89062 228.28125 L 361.89062 172.84375 C 361.89062 162.62225 353.63167 154.36328 343.41016 154.36328 L 232.5332 154.36328 z M 287.97266 283.7207 C 277.75116 283.7207 269.49219 291.97771 269.49219 302.19922 C 269.49219 312.42072 277.75116 320.67969 287.97266 320.67969 C 298.19417 320.67969 306.45117 312.42072 306.45117 302.19922 C 306.45117 291.97771 298.19417 283.7207 287.97266 283.7207 z "></path>
</symbol><symbol id="mta-i-paper-ticket"></symbol><symbol viewBox="0 0 512 512" id="mta-i-refunds">
  <defs id="defs1"></defs>
  <sodipodi:namedview id="namedview1" pagecolor="#ffffff" bordercolor="#000000" borderopacity="0.25" inkscape:showpageshadow="2" inkscape:pageopacity="0.0" inkscape:pagecheckerboard="0" inkscape:deskcolor="#d1d1d1" showgrid="false" inkscape:zoom="1.6484375" inkscape:cx="256" inkscape:cy="256" inkscape:window-width="1920" inkscape:window-height="1021" inkscape:window-x="1920" inkscape:window-y="31" inkscape:window-maximized="1" inkscape:current-layer="svg1"></sodipodi:namedview>
  <!--! Font Awesome Free 7.1.0 by @fontawesome - https://fontawesome.com License - https://fontawesome.com/license/free (Icons: CC BY 4.0, Fonts: SIL OFL 1.1, Code: MIT License) Copyright 2025 Fonticons, Inc. -->
  <path id="path2" style="fill:currentColor" d="m 256,112 c -13.3,0 -24,10.7 -24,24 v 12 h -1.80078 C 193.59922,148 164,177.69922 164,214.19922 c 0,33.4 24.9,61.60117 58,65.70117 L 283,287.5 c 5.1,0.6 9,4.99922 9,10.19922 0,5.7 -4.59922,10.20117 -10.19922,10.20117 L 208,308 c -15.5,0 -28,12.5 -28,28 0,15.5 12.5,28 28,28 h 24 v 12 c 0,13.3 10.7,24 24,24 13.3,0 24,-10.7 24,-24 v -12 h 1.80078 C 318.40078,364 348,334.30078 348,297.80078 c 0,-33.4 -24.9,-61.60117 -58,-65.70117 L 229,224.5 c -5.1,-0.6 -9,-4.99922 -9,-10.19922 0,-5.7 4.59922,-10.20117 10.19922,-10.20117 L 296,204 c 15.5,0 28,-12.5 28,-28 0,-15.5 -12.5,-28 -28,-28 h -16 v -12 c 0,-13.3 -10.7,-24 -24,-24 z M 32,0 C 14.3,0 0,14.3 0,32 v 128 c 0,17.7 14.3,32 32,32 h 98 c 17.7,0 32,-14.3 32,-32 0,-17.7 -14.3,-32 -32,-32 H 112.90039 C 148.10039,88.7 199.2,64 256,64 c 106,0 192,85.90039 192,191.90039 0,106 -86,192 -192,192 -65.2,0 -122.79961,-32.50078 -157.599609,-82.30078 -10.2,-14.5 -30.09961,-18.10039 -44.59961,-7.90039 -14.5,10.2 -18.00039,30.10156 -7.90039,44.60156 C 92.100391,468.60078 169,512 256,512 397.4,512 512,397.4 512,256 512,114.6 397.4,0 256,0 179.5,0 110.9,33.599219 64,86.699219 V 32 C 64,14.3 49.7,0 32,0 Z" sodipodi:nodetypes="sscssccsccsscssscssccsccsscssssssssscssscscssscss"></path>
</symbol><symbol viewBox="0 0 576 512" id="mta-i-ticket-services-alt">
  <defs id="defs1">
    <inkscape:path-effect effect="simplify" id="path-effect2" is_visible="true" lpeversion="1.3" threshold="17.241379" steps="1" smooth_angles="360" helper_size="0" simplify_individual_paths="false" simplify_just_coalesce="false"></inkscape:path-effect>
  </defs>
  <sodipodi:namedview id="namedview1" pagecolor="#ffffff" bordercolor="#000000" borderopacity="0.25" inkscape:showpageshadow="2" inkscape:pageopacity="0.0" inkscape:pagecheckerboard="0" inkscape:deskcolor="#d1d1d1" showgrid="false" inkscape:zoom="1.4142136" inkscape:cx="289.56022" inkscape:cy="255.26554" inkscape:window-width="2560" inkscape:window-height="1291" inkscape:window-x="1919" inkscape:window-y="31" inkscape:window-maximized="0" inkscape:current-layer="svg1"></sodipodi:namedview>
  <!--! Font Awesome Free 7.1.0 by @fontawesome - https://fontawesome.com License - https://fontawesome.com/license/free (Icons: CC BY 4.0, Fonts: SIL OFL 1.1, Code: MIT License) Copyright 2025 Fonticons, Inc. -->
  <path id="path17" style="display:inline;stroke-width:0.667265" d="M 138.5332,0 C 114.97874,0 95.828125,19.150619 95.828125,42.705078 v 1.0625 h -12 v 47.449219 h 12 v 26.310543 h -12 v 53.58203 h 12 v 3.9004 h -12 v 34.85156 h 12 v 3.66406 c 0,23.55445 19.150615,42.70508 42.705075,42.70508 h 298.9336 c 23.55446,0 42.70507,-19.15063 42.70507,-42.70508 v -3.19336 h 11.36133 v -36.32617 h -11.36133 v -2.57813 H 491.5332 V 118.58594 H 480.17187 V 97.412109 H 491.5332 V 42.705078 H 480.17187 C 480.17187,19.150619 461.02126,0 437.4668,0 Z m 16.19336,46.619141 h 267.54688 a 21.133637,22.677151 0 0 1 21.13086,22.677734 21.133637,22.677151 0 0 1 -21.13086,22.675781 h -66.52539 c 14.1472,15.257714 22.80269,35.733684 22.80078,58.246094 0,47.16973 -38.01627,85.41406 -84.92774,85.41406 v -0.004 c -28.2891,0 -53.34198,-13.91874 -68.78125,-35.31836 l 9.70703,-1.70703 v -37.71094 c 0,0 -1.02637,-17.2752 -0.79492,-19.26758 l 0.6543,0.0469 10.85352,55.04883 14.76953,-2.60547 8.86718,-51.10351 h 0.002 v 0.002 0.002 h 0.002 l 0.002,0.002 c 0.0639,0.0451 0.65235,0.0312 0.65235,0.0312 0.32535,2.41836 -0.22461,16.5625 -0.22461,16.5625 v 32.83594 l 14.86523,-2.60157 v -76.41797 l -23.55273,-4.12304 -7.10352,47.08008 c 0,0 -0.38412,-0.0412 -0.46094,0.0156 -0.001,9.7e-4 -0.003,0.003 -0.004,0.004 l -0.002,0.002 c 0,0 0,0.002 0,0.002 0,0 -0.002,0 -0.002,0 0,0 0,0.002 0,0.002 v 0.002 l -0.002,0.002 -6.47656,-49.57422 -23.53516,-4.14843 c 2.53485,-3.799783 5.36335,-7.384336 8.45508,-10.718754 H 154.72656 A 21.133637,22.677151 0 0 1 133.59375,69.296875 21.133637,22.677151 0 0 1 154.72656,46.619141 Z m 134.05078,67.609379 v 19.23242 l 11.65235,1.0332 0.0332,52.47266 13.71289,-2.42774 v -48.83594 l 9.19922,0.78321 v -16.20899 z m 42.60157,7.56054 -10.37696,61.58203 10.48047,-1.85351 0.99414,-7.83203 7.92578,-1.03125 0.94922,7.11914 8.13672,-1.41211 L 341.23047,123.5 Z m -162.49414,9.05664 h 29.92578 c 9.98516,0 18.02539,8.03828 18.02539,18.02344 v 26.99609 c 0,9.98517 -8.04023,18.02344 -18.02539,18.02344 h -29.92578 c -9.98517,0 -18.02344,-8.03827 -18.02344,-18.02344 v -26.99609 c 0,-9.98516 8.03827,-18.02344 18.02344,-18.02344 z m 167.4121,10.97461 h 0.47461 l 2.18164,18.80274 -4.86328,0.28515 z M 199.69922,304 c -33.9,0 -66.5,13.5 -90.5,37.5 L 66.699219,384 H 32 C 14.3,384 0,398.3 0,416 v 64 c 0,17.7 14.3,32 32,32 h 320.40039 c 29.1,0 57.29922,-9.3 80.69922,-26.5 l 126.59961,-93.30078 c 17.8,-13.1 21.6,-38.09844 8.5,-55.89844 -13.1,-17.8 -38.09844,-21.6 -55.89844,-8.5 L 392.59961,416 H 280 c -13.3,0 -24,-10.7 -24,-24 0,-13.3 10.7,-24 24,-24 h 72 c 17.7,0 32,-14.3 32,-32 0,-17.7 -14.3,-32 -32,-32 z"></path>
</symbol><symbol viewBox="0 0 576 512" id="mta-i-ticket-services">
  <defs id="defs1"></defs>
  <sodipodi:namedview id="namedview1" pagecolor="#ffffff" bordercolor="#000000" borderopacity="0.25" inkscape:showpageshadow="2" inkscape:pageopacity="0.0" inkscape:pagecheckerboard="0" inkscape:deskcolor="#d1d1d1" showgrid="false" inkscape:zoom="2.1757812" inkscape:cx="287.94255" inkscape:cy="72.157989" inkscape:window-width="2560" inkscape:window-height="1291" inkscape:window-x="1920" inkscape:window-y="31" inkscape:window-maximized="1" inkscape:current-layer="svg1"></sodipodi:namedview>
  <!--! Font Awesome Free 7.1.0 by @fontawesome - https://fontawesome.com License - https://fontawesome.com/license/free (Icons: CC BY 4.0, Fonts: SIL OFL 1.1, Code: MIT License) Copyright 2025 Fonticons, Inc. -->
  <path id="path1-3" style="display:inline;stroke-width:0.667265" d="M 95.82765,42.704967 C 95.82765,19.150508 114.97815,0 138.53261,0 h 298.93477 c 23.55446,0 42.70497,19.150508 42.70497,42.704967 v 42.704965 c 0,5.871933 -4.93776,10.476062 -10.47606,12.411131 -12.54459,4.337227 -21.55266,16.281267 -21.55266,30.293837 0,14.01257 9.00807,25.95661 21.55266,30.29384 5.5383,1.93507 10.47606,6.5392 10.47606,12.41113 v 42.70497 c 0,23.55445 -19.15051,42.70496 -42.70497,42.70496 H 138.53261 c -23.55446,0 -42.70496,-19.15051 -42.70496,-42.70496 v -42.70497 c 0,-5.87193 4.93776,-10.47606 10.47606,-12.41113 12.54458,-4.33723 21.55266,-16.28127 21.55266,-30.29384 0,-14.01257 -9.00808,-25.95661 -21.55266,-30.293837 -5.5383,-1.935069 -10.47606,-6.539198 -10.47606,-12.411131 z M 66.7,384 109.2,341.5 c 24,-24 56.6,-37.5 90.5,-37.5 H 352 c 17.7,0 32,14.3 32,32 0,17.7 -14.3,32 -32,32 h -72 c -13.3,0 -24,10.7 -24,24 0,13.3 10.7,24 24,24 h 112.6 l 119.7,-88.2 c 17.8,-13.1 42.8,-9.3 55.9,8.5 13.1,17.8 9.3,42.8 -8.5,55.9 L 433.1,485.5 C 409.7,502.7 381.5,512 352.4,512 H 32 C 14.3,512 0,497.7 0,480 v -64 c 0,-17.7 14.3,-32 32,-32 z"></path>
</symbol></svg>